<mxfile host="app.diagrams.net" modified="2023-04-02T22:17:12.616Z" agent="Mozilla/5.0 (Windows NT 10.0; Win64; x64) AppleWebKit/537.36 (KHTML, like Gecko) Chrome/111.0.0.0 Safari/537.36 Edg/111.0.1661.54" etag="Yf0oCQTBUBUcenRpFFCG" version="21.1.2" type="github">
  <diagram name="PÃ¡gina-1" id="0nOcLRTHbJc05M8KPTZy">
    <mxGraphModel dx="2022" dy="645" grid="1" gridSize="10" guides="1" tooltips="1" connect="1" arrows="1" fold="1" page="1" pageScale="1" pageWidth="827" pageHeight="1169" math="0" shadow="0">
      <root>
        <mxCell id="0" />
        <mxCell id="1" parent="0" />
        <mxCell id="U5xGtK3KDeDcZgoCcWLu-5" value="" style="shape=image;verticalLabelPosition=bottom;labelBackgroundColor=default;verticalAlign=top;aspect=fixed;imageAspect=0;image=data:image/png,iVBORw0KGgoAAAANSUhEUgAAA88AAAGICAYAAAB/SdI+AAAgAElEQVR4nOzdd3RU1drH8e+U9AahBAglAhEIRVDpCZeiSBEFI00ElSJcFVRUBAVBLEHsqBdBEbzSEbAgIEWBwAtX6VLUhFAMhCYhpJNM5v0j5pAhCaEkTAK/z1pZzpyzzy6DlGf2s/c22e12OyIiIiIiIiJSILOzOyAiIiIiIiJS0il4FhERERERESmEgmcRERERERGRQlid3QGRG8HBgwd5+eWXsXgHOLsrBbJlpHPiyB/O7oaIiIhcpeHDh9O9e3dnd6PE2R91hH1RR5zdDbnBhXcJVfAsUhSio6OZN28etW9r4+yuFCwrE1tSnLN7ISIiIlfh0KFDVKxYUcFzPvZFHWHJikhnd0NucCHB1RU8i9wsatSowZrvNzm7GyIiInIVvL29nd2Fm1692tUJCa7h7G7IdbY41xczCp5FREREREQKUS+4Og90CXV2N+Q62xd9mP3/LAvQhmEiIiIiIiIihbD2Gx5xWQUf6BxGeCHftCxevrHQ9Qaqp+TXM+ejMZd8TkRERESkNJrz0RhjFjFHveDqXG5MJDc3pW2LiIiIiMhNYX/UEV6fMsfh2tgR/ZzUGyltlLYtIiIiIiI3nXrB1Z3dBSllrOGdw4w317oAPrxLaKGpwqqnZNajVBURERERuVnUC65OvdrV86Rwi1yKVTvGiYiIiIjIzURBs1wNpW2LiIiIiIiIFEIbhgkAudP3RURERERuFLl32N4XdRhwTNveF3XY2DSstOy8HR4ezsqVK/NcDwwMpHXr1owePZo6deoUez8aNGjAwYMH6devH9OnTy/y+tPS0ti5cycAwcHBlCtXrsjbuBIKngW49vXuIiIiIiIlUX47bOdO216yYiNLVmwESs/O21lZWfleP3r0KAsXLmThwoX8+eefBAYGFms/kpKSADh//nyx1H/06FE6dOgAwKxZs+jZs2extHO5FDyLFLO5X0zBanX8rZacnMLvfx5g1pxFnDh52uFeWKtm9OvVHX//MqSkprJp81ZmL1hKamoalStVZNQzwwisUsnhmbS0dPb/EcVHn84iKTml2MckIiIiUto80DnUCJIv3mk7973SZubMmQAcP36cOXPmsGfPHgCmTp3K66+/7syu3XC05lmkmDVuGEKVSgGcS0wyfvz8fOgd3o35Mz8moGJ5o2yr5nfyzhtjqVihHH9GxZBxPpOnHn+EJ4cMwGI24+bqSr06tQmpE+xYn68P/Xr14JXRz+Dh4e7E0YqIiIiUTCHBNRze16tdvcB7pUmvXr3o1asXI0aM4KuvvjKu79+/H4CIiAj69+/Pxx9/zIYNG+jfvz9PP/20UW7BggV069aNgIAAgoKCCA8PZ8OGDXna2bNnDwMGDKBBgwb06NGDdevW5SmzYMEC+vfvT//+/UlLSzOuv/baa/Tv358JEyY4lN+6dSuPPvooDRo0oHHjxjz66KNs27YNgC1btjgE/zNnzuSdd965yk+paBT7zHNaWhqxsbEEBgbi4eFR3M2JlEibf9nGC2PfdLh2f9e7eeGZYUyfMokBQ0eSkHCO50cM4VjccQY8/qwxgzzyycE81Ls7//nswh+G8WcTGPzkKOO9u5sbo54ZRo/7OjHtizkcOHj4+gxMREREpJTInbq9P+qIQ+r2xWndpVWFChWM12fOnAFg/fr1REZGsmPHDg4ePAhkB9wAEydO5K233jKeSUpKYuXKlaxcuZLPPvuMhx56CIBt27bRpk0bo9zBgwdZtWpVnvb37dvHkiVLgOyZ7xzr169n8+bNNGvWzLi2bNkyevfu7fB8VFQUixYt4ueff+aPP/5g4cKFDnWcOHGC559//go/laJTbDPPa9eu5bbbbsPDw4Pg4GA8PT2pX78+ERERBeboi9xMvl+xlnUbNlO7Zg1aNbsdgArlyzH/6+8cUq9/WPUTfr4+mMymAutKS0/ng//MwNvLM0+KuIiIiIhkp2bnqBdc3SF1O/e90iYzM5PMzEyOHj3qEAjXqlXLoVxO4Ozt7U21atX4888/Hco/++yzDBgwwOF9QkICkB1k57j33nsZMmTINfU5PT2dkSNHGu9HjhxJ9+7djfdvvfUWYWFhRERc2Lxt2LBhDu+dwbp4+YXc/vAi2jTqk08+4amnnspzfd++fbz00kts27aNr776SjPRclPLyspi997f6dmjK0E1qgIQds+Decrd26kDScnJ2O32AuuqFFCBUc8M42jccZJTtOZZpKTJysriyJEjpKWlUbNmTVxdXZ3dJRGRm05IcA2Hdc05u23nd6808fPzy/d6165d81z7/PPP6du3LwDjx483ri9dupSOHTsCcOuttzJ27FiSkpJYvnw5d911F2vWrAGgdevWzJ8/H5PJRJcuXejRo8dV9fmXX37h6NGjAIwbN47Ro0cD0LdvX3766Sd+++03atasSdeuXRkzZgwALVq0MProLNYlKyKNN0URPB87dswhcB41ahSdO3fm6NGjjB49mtjYWBYvXkx4eLjxCydyszp1+m/MZjPeXl753r+vy9307xvOshVrOJ9+YRfDsmX8+PzjC98UVihfjqDqVXlnyjROnDxV7P0WkcuTkZHBzp07mT9/Pj/99BMpKSk0bdqUhx9+mFatWuHr6+vsLoqI3DRuhrTtHC+++GK+gW3uNOk///zTeN2iRQvjdVjYhSNs//jjD+rWrWu8v/vuuzGZTMbrq3X48IUlhq1atTJez5s376rrvB6KPG377bffNl5PmDCBt956i7Zt29KvXz9WrFhh3Jsz58L/oBkZGUycOJFmzZphMpmoVasW/fv359ChQw51P/roo/Tr149vvvmGadOm0aFDB+644w7efvtt/vrrL4ey33zzDW3atMHX15c77riDMWPGEBl54YuCHTt2GIvrd+zYYVxfsGCBcT09PZ3MzEz69etHv379WLZsGR9++CGhoaGEhoby8ccfA/DFF1/QsWNH6tSpw/PPP++wOB5g165d9OrVi2rVqlG/fn3+/e9/ExUVZdzft2+f0ea+ffuYOHEi9evXN8oUNha5MbUNa8FLzz/JwUNHmD5zLpk2m3HPZDbh4+Nt/Li4ugDQs8e9BFauVFCVInIdZGVlER8fz/fff0/fvn1p37497733Hjt37uTPP/9kzpw5dOvWjXvvvZfPPvuMY8eOkZmZ6exui4jc8HIfQ1UvuLpDqnZpOaIqP1OnTmXq1Kl89tlnLFu2jAMHDvDKK6/kKdegQQPM5gvhX05KNoBXromc3GcpJyUlGWunASpWrGi8NplMeHt7X1YfLz7KKnedBc2cl0RFvjhyy5Ytxusnn3zS4V6DBg2YO3cuZ8+eNVLWMjIy6NChg0MwGBMTQ0xMDN9++y2RkZHcdtttAHz55ZcAfP/99yQmJhrlt2/fzqeffspvv/2Gp6cnM2bMYPDgwQ73t2/fzqRJk1i+fDmdO3fmxIkTLFq0CICBAwcaZffv329cnzlzJna7nblz5+bb7qZNm1i1ahXff/+9ce3dd9/l77//NraMX7VqFffcc4/D55CzkH7NmjU0bNiQ06dPG23u2rXL+BYoMzPzssZSFIojfV8KV86/LFlZWZxLTDKuubu7cW+nDox6Zhj7fo9iwpvvcyT2mMNzZ86cpfcjjr+/2oa24O03Xua5EY8z/Pm8f2CKSPFKSUlh3759rFq1ipUrV7Jz504SExNxdXWlZs2atG7dGi8vLzZv3kxUVBSRkZFs2bKFjz/+mLvuuosuXbrQpEkT/P39nT0UEREpRXKvU74UNzc3h/fBwcGsX78eyI5PGjZsCGSnVOeoVasWVapUMd5v376dRx55BMje3CvnnOccnp6exuuEhAQjuP7jjz8cylWuXNl4/ddffxnx3syZM9m7dy8eHh689tprlzWu66nIZ5737t0LZOfKly9fPs/9vn378u9//5tBgwYB8NVXXxmBc9WqVXnzzTdp27YtAImJibzwwgt56khMTKRnz56MGzcOHx8fIDvg3rp1K4CxBfrtt9/Ohg0bmD59ulEu965vVyoxMZG7776b1q1bG9e+//577r77boYNG2ZcmzVrFikpKWRkZDB8+HAAfHx8eOWVV4yF8SdPnuS5557L00ZO4Hzrrbfi7u5ebGO52JIVkcaPXD+NGtQj02Yj7vhJAFxdXBgx9FFefWkk6zduYeSY1zh0JPay6tr8y3ZOnfqbBiF1irPLInKRlJQUvvvuOx599FG6dOnCK6+8QmRkJImJidx2221ERESwbt06pk+fzocffsjq1auZMWMGd911Fzabjd27d/P+++8THh5Ojx49+Oyzzzh9+nThDYuIyBW5OG079xrnGy1t+3LkTs9+/fXXOXDgAL/++itTpkwxrrdq1YoaNWoYQfD8+fNZtGgRUVFRjB07Nk+dwcHBxuv33nuPuLg4PvjggzxBdv369Y3XH3zwAefOnWPfvn2MHj2aqVOnEhub99+/uWfKnaVIZ54TExONmdmqVate1jOffvqp8Xr37t2ULVuWMWPG0KlTJ3788UdWr15NTEwMNWvWNMqFhIQwb948LBYLTZo04YEHHgDgyJEj2Gw248OOjY3l6NGjdOvWjRo1ahAbG2sEnlejR48eLFmyBLvdTu3atYmJiQHg22+/xcPDAw8PD95//30A4uPjOXbsmBEMv/zyy7z44otAdprCrFmzWL16NXFxcQ5t3H777axZs4ayZcsW61jE+UJbNaV1izuJOXiYteuy//DudHdbHurdg3Ubt/BqxAcOu24XplKlCvj4eF92sC0iVy8lJYXY2FgiIyOZPXs2mzdvJj09HRcXFypVqsTtt9/OQw89RIcOHRyODYHsY0T69OlD165d+fXXX5k9ezaRkZEcPXqUDRs2sGnTJj7++GN69epF586dqVmzJn5+fsYaMxERuTL1gqtfdlp27h24b3Q9evQgIiKC33//nWXLlrFs2TKH+927dzdmhEeNGsUrr7xCUlISjz76aIF11qtXz3j96aefOsR6uYWEhNCpUydWrlzJ5s2bHWai4cJseu5srKeffpolS5awfPnyKxtoESrS4Dl3rvzlfGtut9v59ddfAWjatClly5Y17t199938+OOPAERHRzsEz61bt8ZisQBQvfqF/8GzsrKwWCwMGjSIGTNmcPLkSWNTshYtWvDKK6/QqVOnqx7frbfeCmCsy46JiSEkJMTYNTz3L3pGRobDmu033niD6dOnA3Dq1IUNnQ4cOODQxoABA4zPoTjHItdXg5A6jHnuQpp1Of+yNL+zMbYsGy+/+jbJKan4+frw8gtPYbfbOXMmnuHDHnOo492PphuvfXy8Hepzc3OlSaP6eHp6MH3m3OIfkMhNKiEhgcjISJYuXcqmTZs4cOAAmZmZWCwWmjZtSteuXenUqRP169fHy8vrkgGvj48P7du3p3Xr1sTExPDzzz/z7bffsmnTJnbv3s2ePXv49NNPadq0Kffffz933XUXVapUURAtInKF+g137vFGzpZ7nXNuFouFlStXMmzYMFauXOlwb+DAgQ7HWI0YMYJTp07x0UcfGdeGDBnC9u3b2bZtm/F3U7169XjvvfccjqHq27cvf//9d55zoadNm8bQoUPztP3ll1/Srl07AMqWLcvw4cONdk+cOHGlwy9SRRo8m81mQkJC2LdvH7t37yY1NTXPcVTvv/8+Z8+exdPT0+FDzZ1LD46L0XOvMwYcguz8/md49dVXOXv2LIsXLzaubdmyhS5dujB69OhLng928WL2i8d38euCztQ1mUwOqQW5Z+Uvbi93HRefx3YtY5GSIS39PFUDK/NQr/uNa+fOJfHL1p28+/FnxB7Nzj5oE9ocT8/s3y/du92Tp54pU78gy27n/PkMLBazQ30ZGRlExxxm9PhJRP7fL3meFZGrl5WVRUpKCt988w1Tp07l119/JSMjA5PJhNVqJTQ0lKeffpqOHTte1e7Zbm5u1KtXj3r16vH444+zefNmPvnkE77//nuOHTvG0qVL+eabbwgODuaRRx5h0KBBlC9f3vgSWUREbj5Lly697LKXmqmtUKECixcvJj4+nj/++AMXFxfq1KmTZyMwFxcXJk2axOjRo4mOjqZWrVoOMVluQ4cOZdCgQRw+fBh/f/8Cy5UvX57Fixdz8uRJoqKi8PPzo06dOri4uDiUmzRpEmPHjuXcuXNOP+q4yDcMa9asGfv27QOyF3w/8cQTxr0dO3YYAXOPHj1wcXGhZs2axMTE8NNPP2Gz2Yx/DOTeQCz3rHNhUlJSiI+PZ8KECbzxxhts3bqVlStXMnv2bCD7DOrx48c7zJKfPXvWeB0dHX0Vo87LZDIRFBRkvI+MjCQ0NP+NuDZs2GC8zh1IX+5Y3N3di6TPUjxuD+1yWeW+X76G75evuWSZ5JSj3Nd7UFF0S0QKkZaWxtatW/nuu+/44Ycf+OOPP7DZbHh6ehISEkKbNm3o0aMHzZs3d9gg5VpYrVbCwsJo0aIF+/fv55tvvmH16tXs3buXP//8k7Fjx/LJJ59wzz330K1bN9q3b1+qdikVEZGSqWzZsg7HVRWkTJky3HnnnYWWs1qteSYFC1KxYkWHidP8eHt7X/bO3sXJGt45rPBSV+CFF15g1qxZQPZu26mpqXTs2JEjR444bKqVk4J8zz33MHXqVBITE5kwYQJPP/00P//8M/Pnzwey09rq1Ln8DZCioqJo3LgxAM8++yyTJk2iX79+uLm5MWPGDBITE0lISHD4xZw2bRpNmjTh8OHDxq7XRSF3v998803mzZtHVlYWQ4YMYdWqVXh4eOTZee5qxqLgWUSk6P31118MHTrUCJrNZjMdO3akf//+tGnThooVKxbbn78uLi40atSIkJAQhg4dyvbt21mwYAFff/01x44dY9asWSxZsoSFCxfSsWPHYumDiEhpU6929WJdsxwSXKPY6pbSwfpAER9LFBISwsiRI3nvvfcAeP755/OU6dmzJz179gQwdlSD7F3eXn/9dYeyERERV/SNfr169YzZ7Pfff5/PP/+catWqGbPhjz76KAEBAdjtdnx8fEhMTGTdunUOh38XBZPJRLVq1Xjuued49913WbFiBWXKlHEoM3jw4DzXrmYsIiJS9Gw2G6mpqZhMJjp27Mjo0aNp1apVnqM+ipPVaiUgIIDOnTvTsWNHXnjhBT788EPmzp1LQkICGRkZ160vIiIlXb3gGjpyVYpVkR9VBdlnHX/55Zf57gb90ksvGTPTkL3h1/bt2/NNzf7kk08c0r5zFLRZislkwtXVle+++45evXoB2WuNc4LNsLAwJk6caJRdtWqVQ4pA06ZNGTFihEN9udvK/Tq/Nc/5lZ04cSJjxozJ09eRI0fy5ptvOtR18evLHYuIiBQfDw8P+vfvT7t27a5r4Hwxi8VC/fr1GTFiRJ4dvEVERKT4Ffma5xwDBgzg4Ycf5vDhw0RFRVGuXDluvfXWfAPqJk2aEB0dTWxsLNHR0VSsWJHg4GBcXV0dytnt9nyfvfh6/fr1WbBgAZ9++ik7d+7Ezc2NqlWrOuzMDdm7Vp84cYK//voLs9ls7GL64YcfFtpufgvvn3/++Twz7Z6enrz55puMGTPGSNGuW7euQ85+aGhovm1cyViuVVGn74uI3EgK+jPaGUpSX0RERG4mxRY8Q/Ys6i233MItt9xSaNmcNOdq1aoVWftly5Y1tjm/lKJssyA+Pj6Xtbi+IJc7lqtV1On7IiICqampHDp0iJMnT2Kz2YDsv+/8/f0JCgrSZl8iIiKlSLEGzyIiIjejpKQkli1bxuzZs4mKiuLMmTNkZWUB2cGzj48Pt9xyC127duWhhx6icuXKTu6xiIiIFEbBs4iISBHJzMxk//79vPzyy6xcuZKMjAysViseHh64uLhgMpnIzMzk2LFjHDp0iHXr1jF79mwmTpxIx44dnbqmWkRERC5NwbOIiEgROH/+PIsWLeLVV18lKioKNzc32rdvT9u2bWnSpAnlypXDZDKRlJTE3r172bhxI2vWrGHnzp08/PDDPPfcczz99NNK5RYRESmhFDyLiIgUgVWrVvH8889z/PhxqlSpwoQJE+jbty8eHh5YLBaHsu3bt+fxxx9ny5YtjBo1iq1btzJ58mRMJhPjxo1z0ghERETkUsyLl28k50dERESujN1u59dff+Xpp5/mxIkTBAcHM2vWLAYOHIi3t3eewBmyN9T08PCgXbt2/Pe//6Vjx46kp6czefJk5syZQ2ZmphNGIiIiIpdiXrIikpwfERERuTKnT59m0qRJxMTEGIHzXXfdlW/QnJ969erxxRdf0L59e1JSUnjzzTfZv39/MfdaRERErpTZ2R0QEREpzXbu3MmGDRtwd3dnyJAhNG/eHJPJVOhz6enpZGRkABAYGMjzzz9PxYoViY6OZuXKlcbRViIiIlIyKHgWAJS+LyJydVatWkV8fDw1atTg/vvvv6wZ50OHDjF48GDGjBnDqVOnAGjatClt2rTh/PnzrFmzhuTk5OLuuoiIiFwBBc8CgNL3RUSuXGZmJjt37sRms9GuXTtq1KhR6DOJiYmMGzeOBQsWMHPmTH766Sfsdjt+fn507twZgKioKE6cOFHc3RcREZEroN22RYpQ1M71zu6CiFxH8fHxREdHYzKZuP3223F1dQWyNxE7fPgw69ato0ePHvj5+WG324mLi2PUqFHMmzcPNzc3evXqRYcOHYw070aNGmG1Wo1zoIODg505PBEREclFM88iIiJXKSEhgZSUFNzc3BxmnQ8ePMizzz7LU089xbvvvktqaipxcXG8+OKLzJ8/H3d3d5544gneeOMNypcvbzxXoUIFAgICyMjI4O+//3bGkERERKQAmnkWERHJh6urKy4uLkD2THJ+bDYbdrsdi8WC1er4V+rx48dJTk4mIiICk8lEdHQ08+fPx263079/fyZMmIC3t7fDM7nrKei4qtx98fDwuOrxiYiIyJXRzLOIiEg+3NzccHV1JTMzk/j4+HzL+Pn54eHhQXJyMgcPHjSu16xZkxkzZtC2bVvsdjsTJ05k7ty5uLm5MWTIECZOnJgncAY4ceIEsbGxWK1Whxnp3BITE0lNTcVkMuHu7l40gxUREZFCWcM7hzm7DyIiIiWOl5cXPj4+ZGRkcPLkyXzL+Pv7ExQUxJEjR9izZw+ZmZnGzHFISAhffPEFQ4cOZe3atbi4uPD4448zceJEfH19863vjz/+wGazUblyZW655ZZ8y5w+fZqUlBQsFgv+/v5FM1gREREplPWBLqHO7oOIiEiJ4+HhQe3atdm8eTMxMTH5lnF1daVhw4ZERkaydu1ajh496rD2+ZZbbmHKlCk89thj1KtXj3HjxhUYOCcmJrJ8+XIAgoODqVy5cr7lDhw4QFJSEjVr1qRs2bLXOEoRERG5XErbFhERyUdOYAwQExNDSkpKvuXuuusuypYty4EDB/j222+x2WwO9+vWrcvs2bOJiIigXLlyBbb366+/sm7dOlxdXWnbti2enp55ytjtdvbv34/dbqdOnTr4+fldwwhFRETkSih4FgDCO4cZPyIignH8lMViISoqiujo6HzLhYaG0rx5c1JSUvjoo4/Yt29fnjK1atUiICCgwLZyNhaLjY0lICCA7t2759mADLKPxtq2bRsAzZs315pnERGR60jBswDwQJdQ40dERLI1bNiQ2rVrEx8fz88//5zvrtvlypVj1KhRVKtWjejoaB577DG2bNlS4G7ZudntdmJiYhgyZAg//fQTnp6ejBo1ipCQkHzL79mzhwMHDlCmTBnatWt3zeMTERGRy6fgWUREpADly5enWbNmmEwmFi9enO+u2yaTidDQUCIiIggICGDbtm0MHjyYmTNnkpSUVGDdmZmZrFq1isGDB7NgwQLc3Nx48sknGThwYL6zzhkZGfzwww8kJiZSs2ZNGjVqVKRjFRERkUtT8CwiIlIAs9lMhw4d8PLyYvfu3ezevTvfclarlV69ejFhwgTKlCnD3r17GTZsGN26dePTTz8lOjqakydPcvLkSWJjY1m8eDH9+vUjPDycn3/+GRcXFwYNGsRLL72U71pngGPHjrF69WrMZjMtW7bUemcREZHrLO9X2yIiImJo2rQpQUFB7N+/n+XLl9OiRYt81xq7uLgwcOBAgoKCeOutt9iyZQvr1q1j06ZNeHl5YbFYgOxU7ZSUFNLS0rBYLDRs2JB///vf9OvXr8CduO12O5s2bSIqKgo/Pz/uuuuuYh2ziIiI5KXgWURE5BKCgoJo06YNe/bs4ccff+SJJ54gKCgo37Kurq506tSJxo0b88MPPzBz5ky2bNnC2bNn85StX78+ffr0oXfv3tSqVQuzueBksPPnz7N06VKSk5Np0KABzZo1K7LxiYiIyOWxLl6+0XgTrs2iREREHHh6etKrVy++/PJL9u7dy8yZMxk3bly+65JzVKpUiUGDBtG7d2+OHDnC77//zsmTJzGbzfj6+lKnTh2CgoIu65xmu93OqlWrWLNmDRaLhb59+1KpUqWiHKKIiIhcBuuSFZHGGwXPIiIiebVo0YIBAwYwffp0PvvsM+6++25CQwv/O9Pb25uQkJACd8++HLGxsbzxxhucPXuW0NBQevfufclZahERESke+ttXRESkEG5ubrz44ovUrl2buLg4IiIiOHnyZLG3m56ezqeffsr//vc/fH19ee655y55XrSIiIgUHwXPAsDi5RuNHxERyatq1aoMGzYMT09P1q1bx8yZM8nKyirWNletWsWsWbMwm8307NmTDh06FGt7IiIiUjAFzwLAkhWRxo+IiORlsVh46KGHaN++PSkpKXzwwQesXLmy2NqLiopi/PjxxMXFUbNmTYYPH463t3extSciIiKXpuBZRETkMlWsWJH333+fZs2acfLkSQYPHsyaNWuw2WxF1obdbicqKoqBAweyY8cOKlWqxMcff8xtt92GyWQqsnZERNIQOSoAACAASURBVETkyih4FhERuQK1a9dm8uTJ1KpVi7i4OJ5//nk2biy6JS+HDh1i1KhRbN68mbJlyzJ+/Hid6ywiIlICKHgWERG5QmFhYbzxxhu4ubmxa9cuHn74YVatWnXN9UZHR9OnTx++/fZbbDYbTz75JAMGDMBisRRBr0VERORaKHgWERG5QmazmR49evDll18SFBREbGwsjzzyCB988AHx8fFXXN/58+dZsmQJPXv25JdffqFMmTK88sorvPjii3h4eBTDCERERORKWcM7hzm7DyIiIqWO1WqlZ8+e+Pn5MXLkSPbv388rr7zC2rVrmTBhAo0bN76sGePDhw/zzjvvsGDBAk6fPo2/vz8TJ07ksccew9PT8zqMRERERC6H9YEuoc7ug4iISKlkNpvp1KkTVapU4bnnniMyMpJly5axfft2nnrqKYYMGULZsmXzBNFZWVkkJiayfPlyJk+ezK5duzCbzdSrV4/JkyfTqVMnpWqLiIiUMErbFhERuUaNGjVi9uzZjBs3jqCgII4dO8b48ePp1KkTU6ZM4ciRI0bZ+Ph4FixYQO/evRkyZAg7d+7Ez8+PIUOGsGDBArp27arAWUREpASyOrsDUjIofV9E5NoEBATw4osvEh4ezsSJE1m6dCnbtm3jt99+Y8aMGYwYMYKAgACmTJnC5s2bSUtLw2w2Exoayquvvkrr1q1xc3Nz9jBERESkAAqeBQCl74uIXDur1UrdunWZMWMGffr0YcqUKWzbto19+/bx1FNPYbFYSEtLw8PDgyZNmjBo0CB69epF+fLlnd11ERERKYSCZxERkSLm4eHBfffdR6tWrVi7di3Tpk1j/fr1ZGRkUK9ePR5//HHuv/9+goKCMJlMzu6uiIiIXAYFzyIiIsWkfPny9O7dm27dujF37lzi4uIYNmwYFSpUcHbXRERE5AopeBYRESlmnp6eDB482NndEBERkWug3bZFRERERERECmFdvHyj8SZcm0aJiIiIiIiI5GFdsiLSeKPgWURERERERCQvpW2LiIiIiIiIFEIbhgkASt8XEREREREpmGaeBYAlKyKNHxGR0uT//u//6NevHy1btuT+++/nm2++ISsr67r24ccff6Rv374AnDt3ju+++45z585dcR0tW7bM8/PII48AMHfuXD766CMA5s+fzzPPPAPAqVOnmDJlShGORkRERPKjmWcRESmV7HY7CxcuZPDgwfTp04eBAwcSHR3Nk08+yV9//cXw4cOvW18yMjJITk4GYN++fbz77ruEhl5ZFs/p06c5duwY48ePd7hetmxZAM6fP096ejoAcXFx/P7770B20D1t2jRGjBhxrcMQERGRS1DwLCIipVJaWhqLFi3ikUce4eOPPwayA+patWrx8ssv069fP/z9/cnIyGD58uVs2rQJDw8PwsPDadSokVHP+vXrWbVqFWlpaXTv3p0WLVqQlpbGvHnzePjhh/H09ARg+vTpNGrUiBYtWvDf//4Xb29vNm3aROvWrQkMDKR169ZER0czdepUYmJiGDduHAMHDmT37t3069cPV1dXAL7++mt8fHy455578owpICCAgQMH5jveoKAg/P39Ha79/vvvLF26lBMnTjBp0iRGjhxJRkYGP//8Mz///DO+vr48+OCD1K9fH4C1a9dy9uxZ9u3bh5eXF/369WPHjh1s3ryZjIwMQkNDufvuu3Fxcbn2XyAREZEbjNK2RUSkVLJarfj7+/PTTz9x4MABAEwmEwMHDuTAgQOUKVMGgLfeeov33nuPVq1a4efnR8+ePTl8+DAAn332Gf369SMwMJAGDRrQv39/1q9fT0pKCkuWLCEtLc1ob8mSJfz2228AfP7550yZMoWOHTtSsWJFoqKi+PLLL/Hz86NZs2b4+/vTvn17KlWqxNSpU0lISDDqGTFiBKmpqVc83q1bt7JhwwaHa+XKlaNOnTp4eXnRqlUrLBYL//nPf4zxuru7065dO7Zt2wbA//73P0aPHk25cuUICgpi48aNDBo0iJCQEBo0aMDQoUNZsGDBFfdNRETkZqCZZxERKZVcXFwYNWoUsbGx3HvvvVSqVIlmzZrRokUL/vWvf2E2m/n999+ZPHkyS5YsoXHjxrRs2ZK9e/cycuRIPvnkE959911ee+01HnvsMQA8PDzIzMwstO2srCwGDBhgzB7nBOMVKlTgjjvuoEyZMrRr1w53d3cqVarEzp07ufvuu1mzZg3p6em0adMm33rPnDnD119/bbx3c3OjVatWlCtXLt/yFSpUICQkBG9vb9q0acO5c+f48ssv+fjjj2nQoAH/+te/OHDgAK+//joLFy7EbrfTuHFjHnnkEby8vBg7dixNmjQhLCyMgIAAPD09sdlsZGVlYTbr+3UREZHcrOGdw5zdBxERkatSu3Ztvv76a6Kjo4mJieGXX35h/PjxBAQEsHDhQn7//XdSU1MZNWoUbm5uABw7doz4+HiOHz9OcnIy4eHhRn19+vQB4MSJE5ds18vLi8DAwEL75+HhQWhoKAsWLKBdu3YsWrSIBx98ME/6dY6zZ8+yYsUK4723tzd169YtMHi+2B9//MHBgwd59tlncXd3N8ZSrlw5Y/a7QoUKRir6/fffz7x58+jWrRt16tShe/fudOnSRYGziIhIPqwP6FgiEREphTIzM/n777+pUKECjRo1olGjRnTv3p3w8HD+9a9/8csvv2Cz2fD392f9+vX4+Pg4PL9jxw7sdjseHh7GteTkZGw2W77t5WzWBdnp4ZcTYJpMJlq3bs2kSZN45pln2LdvH3Pnzi2wfM2aNZkxY0ah9RbEZrNx2223sXTpUgICAvItY7FYMJlMADRt2pQDBw6waNEiZs+ezRNPPMGgQYN44403sFqVnCYiIpKbvloWEZFSKS4ujs6dO7NkyRKH656enphMJlxcXKhWrRopKSn88ssvQHa69YoVK5g/fz7ly5fHw8ODb7/91nj2/fffNzYfS01NNY68On36NBs3bryqft5xxx3Url2badOmUalSJapVq3ZV9VyOwMBATpw4QVRUlHFt5cqVzJs3L8+XAllZWaxdu5a1a9fSs2dPvv32Wz777DN27drl8EWBiIiIZNPXygKA0vdFpLQJDAxk6NChDBw4kIULFxIaGkpGRgYzZ86ka9euhIaGYrFY6NWrF2PHjsVsNvPXX38xduxY3n33XQIDAxk0aBBjx4411vouXbqUadOm4eHhgYeHB6NGjWLgwIF8+OGH+Pr6Xla/vLy8iIuLY+PGjdx33324u7vz+OOPM3r0aF588cUi/xw8PT1JSEhg/fr1hIaG0q1bN0aOHMnkyZM5cOAAL7/8sjH+3MxmM3v27GHChAlMnz6dgIAAPvroI+68804jxV1EREQuUPAsACh9X0RKG7PZzNChQ6lTpw5z5szh+++/x9XVleHDhzNo0CAj7Xjq1KnMmDGDt99+G3d3dz755BO6desGwOjRo6latSrTp0/HZDLx1ltv0bhxY6xWK2+//TYRERG888479OvXj9q1axvrnJs0aeKwDrlSpUq0bNkSgIYNG/Lwww/z0Ucfcd999wHQpUsXXnrpJVq0aFHgeCpVqkTTpk0LvF+jRg0j9bx69eo0adIEgHvuuYcHH3yQWbNm0bx5cyZOnMjChQt544038Pf356OPPqJnz54A3HLLLfj5+Rl1Dh06FKvVysKFCzl79iz33XcfjzzyiFK2RURE8mGy2+12Z3dCpLRbvXo1HTt2RL+dRCQ/69atY/To0fz4448OwauIyOXy9vamW7duzJs3z9ldKXEWL9/IkhWRPNA5jHBNCEkRe33KHPZHHWHsiH5a8ywiIlJcUlNTee+993jsscf497//rcBZRESkFFPwLCIiUozS09N55pln6N27t7O7IiIiItdAi5pERESKiYeHB2PGjHF2N0RERKQIWBcvv3D0htYIiIiIiIiIiORlXbIi0nij4FlERKTozf/6G3y8vena6S5nd0VERESuktY8i4iIFLPITf9j6/Zdzu6GiIiIXAOteRYge4v/HMpAEBERERERcaTgWQBQ+r6IiIiIiEjBlLYtIiIiIiIiUggFzyIiIiIiIiKFUPAsIiIiIiIiUggFzyIiIiIiIiKFsIZ3DnN2H0RERERERERKNOsD2llZRERERERE5JKUti0iIiIiIiJSCJ3zLAAofV9EpOjEHT9B5UoBBd7PzMzk6LHj1Khe9Tr2SkRERK6FZp4FgAe6hBo/IiJy9Q4eOsKY8W+ybsP/5Xvfbrez6qf1THjzHQ7EHLrOvRMREZGrpeBZRESkCFWrWoXWLZvx1bxFbNz8S577O3bt4ZvvVhDashlBNao5oYciIiJyNRQ8i4iIFCGr1Urv8PupVCmAz2bOJubgYePejl17iHhnCnWCa9O3Z3csFosTeyoiIiJXQsGziIhIEfP18ea54UOpFFCRaV98RWJSEsfijvPV3EXcElSdh/uG4+np6exuioiIyBVQ8CwiIlIM/P3L8vQTg0lLSyc1NY34swl4enow6tknCahYwdndExERkStkXrx8Izk/IiIiUnSqVK7EgIcexMfHm3LlytKnZ3fKl/N3drdERETkKliXrIg03oRrp2UREZEidUeT2xj0yENYLGZC6t7q7O6IiIjIVdI5zyIiIsWsVfM7ATCZTE7uiYiIiFwtBc8C4JC2rwwEEZGipaBZRESk9FPwLAAofV9ERERERKRg2m1bREREREREpBAKnkVEREREREQKoeBZREREREREpBAKnkVEREREREQKYQ3vHObsPoiIiIiIiIiUaNYHtLOyiIiIiIiIyCUpbVtERERERESkEDrnWQBQ+r6IiIiIiEjBFDwLAErfFxERERERKZjStkVEREREREQKUSqCZ5vNht1uv+pns7KyirhHIiIiIiIicjO54dO2zeZS8f2AiIiIiIiIlGAlMni22+3GbLHJZHK4l5WVZcxCm0wmzGazcc1isRjlbDYbZrMZu91u1JG7XsgOrE0mU4HXC2pPREREREREbi7Wxcs3Gm/CS8imUbkD59zp2na73QiGTSYTWVlZZGVlGeVy7uUOdnPXlfM6J+DOysrCYrE4XM8JpHOu2+124/rVpo6LSMly6GQaB0+mXVMd7RqUuabnf95zVu2rfbWv9ktM+7dUdAcg6J//iohIXtYlKyKNNyUheM4JUHNmkXPPCucOcuFCcJ3z/uLg+VL1XhwQ58w2m0ymfNdJ55QXkdLv0Mk01v2WcE11XOs/XtW+2lf7ar8ktb+OC9eCKroTFOB2ze2IiNxoSlza9sUB6sVp25Cdkn2x3EFz7oD6UvXmno3Ob1Oxi1O6c54RkdItqKI77Ro6tw/tGvqpfbWv9tV+iWn/4Il0IPvLRePnRDrtGvppNlpE5B8lLnjOL1X74vu5Z5pzmM1mhxnji4PcS6WAX7xe+uLrOWVzP3OjKYnp+yLFJaiiu9P/MdjWyTM6al/tq32173jtwutDJ9P4+bcEDp1MY+baNNo29NMstIgIJTR4huyZ4ItTpS9e25wTKOcX+BZW78Up4Lnby10mJ1jPSee+UZW09H0RERFxjqCK7jzWwZ11e87y828JRpq3AmgRudmVyK2jc4Lki893zh3o5gSyudOzcwLkgmaGc9eb+9nc13MC5pygOed6zjM34qyziIiIyMXaNihjpHhf6zptEZEbQYmbeQbybACWW04aNeQNZPM7Rir3rHRB9RZ03WQyGe0paBYREZGbTU6Kd04at7OXvIiIOFOJDJ5zXGoG+XrWq8BZREREblY5AbQCZxG52ZXItG0RERERKTmcvcmZiEhJYA3vHObsPoiIiIiIiIiUaNYHtLOyiIiUAFFxqfxzEEIeZbysBJRxub4duoGkpGfx1+nsc3zrBHo4uTciIiKlU4le81yUIiMjCy/kJGFhmv0XEZm97mSB924JcOfR9gHXsTely8+/nSXmRBrNgn1oWMMrz/2DJ9JYuOkUAK/2rXG9uyciInJDuCmC54iICCIiIpzdjQKNGTOGMWPGOLUPSt+XG8HMtScAeKyDgqzSzN/Hio+7xeFa7cqaLb2UP4+lcuzMeQL93fINnkVEROTa3fDBc2RkpBE4l8QZ3pz+OTt4Vvq+3AgOnUxzdhekCHRoVIYG1fMPAP+zIo70jCyaBfvwa3QiSak2ggLc6di4LBX9stO6dx9KZtXOeJLTbASWc6NyWVd+j02hRV1fWtf15UxSJos2neJUQgYAlcq60rKOL/WrewJwMiGDBRtPEZ+UiZebmRZ1fdny+zkCy7vRJ7RCnjY83Cw0vsWLjo3LAvD1/53mr9PpNKzhRVRcKqfPZVCpjCu9Qyvw9ebTHP07HXcXMw+2Ks8tAdm7Fx+PP8/Xm0/z97kMXKxmqldwo3doBVwsJnbEJLFuTwJBFd1JPW8j5ngaXu4W7qztTViIH9//eoYTZ7PHsj0mCYBOt5e94s/9Up/L9FXHSUzJpGmwD23qZ5/7u2DjKWJPp9O4pjcdGpW55Bj+92ciG/clEFLNk4QUG1FxqYzqURU3F+1bKiIipccNHzxv3LgRKBmzu/np2rUrkZGRREZGlsjgXkTkett+IImjf593uBYa4ouXm4VTCefJssOqnfHGvahjqZxKyODZ+wI5fDKNxZtPG/f+Op1urPU9k5gdFH6++jjJaTYATKacMqd4tlwgXu4WPl0Zhy3LDsC5VBurdmS3ZYnP7tPeIykObSSn2di0/xxp57O4r1k54uLPczY5k8h9CUaZ2L/Tee+7WOzZ1ZJkszF7/Ule7lmd5DQbn/4YZ9xLz8gi6lgqnyw/xjPdAjmTlMnZ5Ex2Hkwy6jubnMmaXWep4OvCqXMZRn/PZ2Zx6lzGVX3ul/pcvN3NHP3bxq9RibSp70eWHfbHpmC3Q+WyriSmXnoM8UmZnEu1seXPRKM9+1X1UkRExHlu+OA5Pzkz0TmB9fU2evRoBcoiIgU4cDyNA8cdswga1vDCy+1CKndQRXcGtKvIsl/PsD0mibPJmQCs3nUWAA9XM8M6VSY6LpXvfz1jPJeYaiM9IwtXq4nhXQNxczHx5td/AXDkVDpnkzOxZdkxmeCRdtnp/3PWnyTDdiHU+/GfYPqWAHf6t63Iuj0JbNibwI6YJLre6W+UK+Nlpd+/KrJ0y2mOnTmP3Q49W5cnJT2LH7aeIdNmJz4pkw17z2K3Z/d5+L1VOJOYyeerjxOflMnhi7Ipht5TGavFxLQf48i02Yk5kcbADgFM+zGOY2fO0+JW36uadS7sc2l+qw9/HE3lXKqN5HSbMR6zCepW9eTb/52+7DGU8bISFuKLq1WzziIiUrrcdMFz7jRuZ/bh3LlzTu2DiEhJVcXflXI+jjtr+3g4roFuFuyDxWzi9lreRqoywOl/Zl3vrO1DGS8rd9b24affEowZVR8PC090rsKGvQnM+uk4Z5NtxrO2LDuxf2fPUgeUcTVSqusEerDnSIpR7lxqdqB+PP48nyw/hu2fHcKz7BAXf2HGvG5VDyr6uVC/mhfHzpzHy81Cg+peZNjs/LA1O6DPyMwiLj67zxk2OzNWH3cY559xqZhNJqPvVfxdASjnY+XE2QzOZxbN/G1hn0utSh5YLSYybXb2HE7h2Jnscdaq7IHZRKFjyOHmYubZ+wKLpM8iIiLX200XPE+aNAnITuMODb3+63w3btxobGBWEtPIRUScrXU93wLXPOfwcs+etTSbHK/npC+7WC/ccLFceH0uxfZPwGvHYjZRxd+Vo3+n889jxgxz7mdcL1qXm5OanGXHCF5zgntLrg7lBL3mfx7/5y25u2wyQcY/0bc9n/q83Cykns++n3t9sMl00cCvUWGfC0DdQE/2HEnmt8PJxCdlf4HQPNgHKHwM51Kyg3FfT8cvQUREREoT6+LlF1KXw2+CTaNyjqxyduDqrJRxEZEbma+nldPnMth5MIk29f04lZBhpHQD7D6cjC3LjtVi4qUHq5GcnsW738Qa9yv6uhBzPI2jf6eTmGrDajHxe2yKQxtuLmbSM7KoG+jBAy3Lk5xuY1t09ux3Bd8rP4va39uFM4nZm5M9170qAJv/OEdGpp1bq3iw61DyZddlv8qVxIV9LgDNb/Vhz5FkYv9Ox24Hq8VE7SoelzWGrf98Phd/2SEiIlKaWJesuHD+8c0QPIuISMm2aNNpFm067XDNzcXMSw9WK/TZ1nV9+faXvzmTmMnE+YcdZk4BAv7ZkTvTZmf5tjNEHbuwHjfLDi3r+rLlz0Sy7PDut9nBo/2iOhrW8GRrdBK7DycTn5zJ8fjznM+04+thMXaivnwmmt/qQ3Rc9nrinN3EzyZnYjLBHbW8L6sW6z8z5TtjkvH1tNK6rm+BZcfPO5zn2sP/qggU/LkAVK/gZnxxABBcxcOYRS+KMYiIiJR02q1DRERKhEtlItsvjmCNZxwfur1W9vFNFrOJLHv2mdFe7hdSqoOreFDhnwB6a3QSmTa7sRHZ/r9SKONlpW9YBdxdzNjt4OlqIaBMdvmcWdOud5YjuLIHdnv2ZlrnM7PreLit4/niRpp2Af/NeX1rFQ/aNSyDyQQnzmbv1G02wQMtyuPlbsn/uYv+e2dtH0wmSMvIYs/hy5+pzlHY55KjfjVP43VOyjYUPgYREZEbwU235lnyd7Ol74tIyTOhT41Cy4y/qEwVf1de7Xvh2p/HUvFyN9M7tAK3BnqQnnEh/bhqeTcAnupSxdhV++KNyY7Hnyc+OZO7bivDncE+2O0YG2BVLpv9vNkED7etSEp6FnHx6ZT1csHf58Jfp8O7VnGos2UdX1rWuTATbDGbHPoM0LaBH63r+RJ35jxWi4lKZV2NYL19wzK0b1jGofywTpUd3t8W5EVINU+S02y453N2cv3qnrxa/dKf76U+lxwBZbI3LHNzMRsbql3OGDrdXvaqdgEXEREpSRQ8CwBK3xeRG8HvsSlsO5C9vtbfx8rZpEwj7bh2JQ+jXBmv/P/6S0y1sXJ79lFU6/cmkJ6RZWyAVSfQw6Gsp5uZWpU88tRxtVwsJqpXcLum5wsa1+W61POfrz5u7EZeUCr2tY5BRESkJFPwLCIiN4yud/qTabMTfTyNM4nZa259PSw80LI8nm6Fr1QKruLB3Y3Lsu1AIvFJmdjt4O5iJqy+H42CLr0D+I0uLj77bGd/HyvtG5Up/AG54eSsl784c0JE5Gah4FlERG4YFrOJB1qWBzCOXbpSofV8Ca3na8xYa4fobGN7VUcfhYiI3MwUPIuIyA3pagLn3BQ0O9LHISIiNzvtti0iIiIiIiJSCGt45zBn90FERERERESkRLM+oJ2VReQG8ViHgMILiYiIiIhcBa15FpEbRlBF98ILiYiIiIhcBQXPAoDS90VERERERAqm4FkAUPq+iIiIiIhIwbTbtoiIiIiIiEghFDyLiIiIiIiIFELBs4iIiIiIiEghbvg1z6Ghofzwww+EhWVviPXDDz84uUciIiIiIiJS2lgXL99ovAm/ATeNygmaC3ovIiIiIiIiUhjrkhWRxpvLCZ4jIiKIiIgozj45RVhYGKNHj1ZwLSIiIiIiInlc0ZrnyMjIGzJwhuyxde3a1dndEBERERERkRLoitY8T5o0CYBz584VS2ecqWvXrkRGRhIZGXlTzj7f6On7IiIicm1e7VvD2V0QEXGqKwqeIyMjr+h6SXczBskFudL0fRERERERkZvJNe22XdrXP4eFhWn3bRERERERESnUNQfPUHpncHPWcI8ZM+a6tRkWFubQ3ujRowkN1UyviIiIiIhISXbVwXNOqnZpnr319fW97sEz4NBeWFhYqf3yQURERERE5GZxTTPPUric2fmNGzcWUjIvHZ0lcmVmrj0BwGMdApzcExERERG50VjDOys4Kw6RkZFMmjTpmjZTy9n5W0G0yOU5dDLN2V0QERERkRuU9QHtrFwscgfOY8aMueJ1zRs3bmTjxo0O6fEiIiIiIiLiHErbLgY550XD1Z+JnRMs+/r63tTnT4uIiIgIBFYLwr98RWd3Q+SmZnZ2B25EOeub8wt2IyMjjY3KIiIi8PX1dfi5WM7mYlezZvpKhHcOM35EREREpGRp2qotwXXqO7sbIjc1zTwXo/xStXN21w4NDS32gPhKKH1fREREpOT6ZsEsbCnd4KnHnd0VkZuWgmcnyDna6+Izn0VERERERKRkUvBcjDZu3GgcVXUtdYiIiIiIiIhzKXguRrk3DhMREREREZHSS8FzMcpZ23wtch9XJSIiIiIiIs5hXbz8QlpwuDaNKlKhoaHXvKY5IiJCwbOIiIiIiIiTWZesuBCYKXgWERERkfyMn3cYgFf71nByT0REnEPnPIuIiIiIiIgUQmueC+Dr63vFz4SFhRnHUJU2St8XEREREREpmGaeBYAlKyKNHxEREZHisGXLFlasWEFqamqR1blr1y5mzZrFihUrOHPmzFXXk5CQwKpVqzh9+vQ19efw4cMsXryYlJSUfO+npqayYsUKjh07dk3tiMj1p5nnApw7dy7f6zmbd4WFhV3P7oiIiIiUaomJibRs2RKAhQsX0rNnz2uu88UXX2Ty5MlUrVqVhIQEAFavXk3z5s2vuK7o6GjuuecefvzxRzp27HhFzz7xxBMkJCQwZ84c9u3bx1tvvUWrVq3w9PTMU/b06dN06dKFefPm0adPnyvup4g4j4LnyxQZGUnXrl2N92FhYYwePVpBtEgJ8liHAGd3QURECrBs2TIAbr31VubMmWMEz6+99hq7du3CxcWFX375hcGDB/P444/TsWNHHn30UYYPH86sWbP46KOPWL16Nf7+/gCsWLGCyZMn89prr/Hyyy9js9lo3749U6dOJSAggPDwcO677z7mzp3L7t27mTlzJm+//TZWq5Vnn32WYcOGceLECQYNGsSuXbto06aN0df09HReeOEFFixYQI0aNXj//fdp3bo1UQ6CtgAAIABJREFU9913H4GBgezdu5eEhARef/11MjMzmT17NgBvv/02DRo0wGazAdmz0J988gnz5s2jSZMmfPjhh1itVod2xo0bx7x586hduzZjxoy54sBdrl2fPn2oV6+es7shxaxu3br07t37mupQ8HyZcgLnnGA5MjKSyMjIAmeoReT6C6ro7uwuiBjsdjtZWVnY7XZMJhMWi8XZXRJxqq+++oqwsDB69OjByJEj+X/27jwuqnJ/4PjnzMCwjiwqyCIKLrgkm4BL4lZumblmLpkX09QMzSyvWt3W19UWd9OrlWhqWv7M3DJL0sQlVhXJVBRlUwQEZJCdOb8/hhkZAZckF3jer5cdzpzzLBxJ5jvfZ8nKyqJRo0ZcunSJbdu2MXDgQBwcHJg3bx4vv/wySqWSdevWERISwvfff49SqTQEzgCxsbEADBgwAEmSMDEx4dChQwCcPXuW2NhYYmNj6dy5Mzk5OUydOpVRo0ahUCiYOnUqPj4+/Pzzz+zZs4d//etf7N+/31D3L7/8wvLly5k3bx6//vorAwYMID09nYiICDIyMpg0aRI7duxgzpw5fPfdd7i7u5Ofn09gYCCpqanExsZSUlLCvHnz2L9/P++++y7z5s3j888/Z86cOYZ2tm/fzmeffUZoaCgbNmxg6tSpnDt3Tvx78RC8//77D7sLwj9sy5Yt912HCJ7vQuWh2voFwfQLioWHh4vssyAIgmBQXl7O5cuXiY6O5uzZsxQVFaFWq/H09MTPzw9HR0fxxliod9LT09m7dy8LFy6kT58+gC5wnDRpEgBqtZrdu3fz22+/8dRTT/Hnn38yatQoZs2aRUpKiqFsZRqNBgA7O7sa233vvfd4//33DZlhNzc3w7VffvmFn376icGDBxMaGsqaNWuYPHkyADt27ECtVmNhYUHz5s2JiooiMjISgDFjxrBmzRpcXFx4//33adWqFS1atCArK4sePXqwadMmQxtz587Fy8uLxMRENBoNp06dMurfjRs3AFi8eDEDBw5k9erV4t+Hh2jLli2cOXPmYXdDqGV//fUX3333Xa3UZTJ8gAj87pY+iBbqpoEDBzJ37ly6dROrjQuC8PeUlZVx6tQpVq9ezf79+8nKyqK8vBylUknjxo0ZOnQoEyZMwNPTE0mSHnZ3BeGB2bZtGwCzZs0yvLZhwwZD8Ozk5ASAmZmZ4frgwYOZNWsW//3vfwF47rnnjOp0d3cH4OjRo3h4eAAwbdo07O3tefHFFwHw8vIC4MKFC4BuTRsLCwtmzpyJj48Pn3/+Oe3btwegRYsWhrr1AVR2djaurq7MnDmTxo0bA9CoUSMAVCrVHb/v2bNnc/jwYV599VVat25d5fqYMWPIzMxkw4YNzJ8/nxUrVpCRkYG5uRhJ9bC89957D7sLQi2rzbUFFMOe6Yb+j1C9ypnlBg0aGLLOQUFBIutch4SHh/PMM88wcOBADh8+fOcCgiAIlciyzKVLl1i0aBHr168nNTUVCwsLGjVqhJmZGZcuXeLLL79kzZo1pKenP+zuCsIDtX79elxdXVmxYgUrVqxg0KBBhIeHk5SUVGOZFi1a4Ofnx//+9z+8vLxo2bKl0XV9MD1r1ixWrlzJ5MmTWblypSFgBlAodBvL6ANkT09PevfuTXx8PFZWVowcOZJt27axY8cOli5daijn6+uLRqNhyJAhuLq6Eh8fbwiaa3Lt2jUyMzMN57Iss3fvXoYPH87EiRM5d+4cWq3WqMynn37Khg0b2LZtG++99x4ajYZLly7dth1BEB4esVXVXdqzZ49RoPw47+ks3J4IogVB+DvKy8vZv38/YWFhKBQKhg4dyvLly1m7di2fffYZ/fr1o7S0lO3bt3PgwAFKSkoedpcF4YE4f/48UVFRTJgwgWnTpjFt2jTeeustAP7v//6v2lEY+tf0GaPRo0dXucfJyYkdO3ZQWFjItGnT2Lx5MzNnzmTYsGFV6hk6dCghISH85z//YdCgQXh6etKlSxdCQkJo1aoVQ4YMMXyopVAomDt3LoMGDaJHjx4sXryYQYMG4ejoWG22WZIkevXqxenTp5k7d67hdYVCwezZs1m3bh1+fn60a9eOhIQEysrKDPeMHDmSoqIi2rZtywcffMCrr75KmzZt7vkZC4LwYIg5z3dJn2Wuq3OcxfD9qvSLwgUFBYnh3IIg3JYsy5SUlBAREUF2djZeXl7MmDEDf39/TExMKC8vp3nz5qSnpxMXF8fRo0fp27fvHTNZglAXtGzZElmWjV4LCgqq8hrAk08+aXi9qKjIEKyOHDmy2rqfe+45cnJySE5OxsXFxXC/p6enUf1KpZJly5axYMECtFot1tbWAHh7exMdHU1mZiYODg5Gde/cuZPs7GwaNGhgWCE7JSXFcH3u3LmGYDkkJIRXXnkFrVaLhYUFY8eOBWDBG28we/ZsbGxsjFbZrty38+fPk5iYiKurq9GwdUEQHj0ieK6Bfmj2vXics9E1DdufP3/+A+7Jo0cE0YJQv2i1WgoKCrh8+TI5OTlotVqsrKxwdnbG1tbW6A1wZYWFhWRmZlJeXk6HDh1wd3c33KtUKmnbti2tWrUiLi6OzMxMCgsLa+xDWVkZ165dIy0tjeLiYsMqw05OTlhaWor50kK98NWL43h92/8R7NoUx6nTuHGbex2A0oo/dyJBlbqsqnkNwAworvhztyrXoxr3Ig1fHHv7/kiS0XxrQRAeXSJ4Fm5LBM836YPoW4fwC4JQd5SXl5OWlsaPP/7Inj17SEtLQ5ZlbGxs6Nq1Ky+88AJeXl7VZoeUSiWmpqZIkkReXh6FhYWGbapAtzKwRqNBlmVUKpVhLmZlsixTXFxMTEwMW7Zs4ciRIxQXF6NQKHBzc2Po0KE8++yzODo6igBaqPNG9e3H4Owc7E1NQUYX9eo9JufVZdcFQXh8ieC5BmL/Zp3Kc3fqujt9UKB/FiJwFoS66/LlyyxZsoSVK1dSUlKCqakpCoWC0tJSoqKiOHXqFB9++CEBAQFVgl9LS0tatWqFSqXiyJEjhIWFMXToUCwsLMjPz2fnzp3ExsZiZmZGq1atUKvVVdovLS3ljz/+YO7cuURFRQFgamqKVqvlzz//JCYmhitXrjB16lQaNmwoAmihTmtgYY6Z0gRZK+tiUflmjPq4nAuCULeI4Fm4LRE833wG9elZCEJ9VFBQwK5du9iyZQuSJPHkk0/So0cPLC0tOXHiBGFhYRw9epQ1a9bQrFkzo+yvJEmYmJjQt29fDhw4wIkTJ/jkk0+IiIigYcOGpKSk8Pvvv3Pt2jWCgoLo16+fYc6lnizLXLhwgcWLFxMdHY2TkxO9evWiTZs25Obm8vvvvxu2wXJzc+P555/H0tLyYTwqQXgwZN1/Kg7IktHLj8W5SDwLQt0igmdBqIEImgWhfklPT+fnn38mKysLX19fPv74Yzp27IhSqSQtLY2lS5cSGhpKWFgYzz//PE899RSmpqaG8pIkERgYyMsvv8yiRYu4dOkSoaGhKJVKysrKUCgUeHl58corr+Dt7V0lc11WVkZ0dDTHjh3D2tqa8ePHM23aNOzs7CgpKaFv37688847HD9+nF27dtGzZ0+aNWv2oB+TUI99MPrB/rzJsoxWKz9SmeR7zjyL6FkQ6hSTbT/d3IpnuNjrWRBE0CwI9ZBWqyUjI4NLly5hZWXFwIED6dy5MyqVCkmSaN68OaNHj2b//v1cvnyZv/76i+7du1cJntVqNePGjcPR0ZFNmzZx4MABcnNzadKkCT169GDcuHF079692jnTJSUlJCYmkp+fT+vWrRk4cCBNmjRBkiTMzMzw9/enZ8+exMfHc+nSJTIzM0XwLNR9sow+fNYflT4+lJ04UeX1ez1aLvocgBtvvHVf9dzuKEJnQahbTH7YG244qY/Bs5i/KuiJoFkQ6reSkhJKS0tRKBRYW1ujVCqNhmVbWFhgZmZmWNSruoWAJEnC0tKSQYMG4ebmRlZWFn/88Qc9e/bko48+ws3NzajeymRZprS01LCgWOUAWz8s3NLSEoVCQVlZGeXl5f/cwxCER4AsyxX/n+n/X9MdzV56EbOXXiR/5iyj1+/laOLjbWhH6d2BshMn/1Y9dzyKzLMg1Cl/e9i2PugMDw9n4MCBtdahB01sOyToiaBZEOovSZKws7OjUaNGXLx4kWPHjjFixAhcXV2RJIkbN24QERFBSkoKZmZmNG/evMYtq/SBrq2tLRYWFigUCtRq9W23uQLdwmBOTk6oVCquXLnCqVOnaNeunSFgT09P58SJExQVFWFnZ4eNjc0/9TgE4ZFRXeypmTkL9eKFWC9eiOb1WVVv0I+brmDi442pj7chYK4cOANY+yw0fF207huQoDD0m5o7dUv993xdEITH1n3NeZ47dy7z588nPDz8zjc/gipvbl/fieH7giDUZ5Ik4eLiQrdu3YiLi+PAgQMsWbKEZ599FjMzM2JiYlizZg0ajQZvb2/atm1720D47zAxMaFly5Y0atSI5ORkVq9eDUCrVq3Iy8tj586dHDp0CHNzc3r27Imjo2Otti8Ijxpd5llLpVnE6FfiypsxE/XSxVgv+RzNjFlVroOMqY8P5sEvYerjA0DpiZOUnThBYeh6AMyDxwMyRaHfYOLrDUiY+Hjpyo1/icJ131AYuq7a9kFGvXQxINfYPkhiqypBqGPuO3h+nDO3Ysj2TfV9+L5QN4SGXQUg+CkRVAj3zsbGhueee44TJ07w22+/8fXXX7N3715MTU25evUqWVlZyLJMVlYWkZGRNG3aFDs7u1rZLkqWZXJzc4mLi0Oj0VBWVkZUVBRJSUk0atSIwsJC0tLSUCgU9O3bl2HDhtGgQYNa+K4F4dEm65eupuoxb/pMGixdhHrJQvJmvGF03TJ4PBbB4wEoDF1PQUXAXJk+A11y/AQlx08YXdOXt/jXS5XK36y/wdJFmPp4kzfjjUoBck1HQRDqijsGz9VllR/XTPOtqvs+Dh8+bHR+vwH2/T6rW/sjCELNLmUUPewuCI8xpVKJr68vb7/9NmZmZhw5coTk5GTDHORmzZqRn59Pamoqn3zyCSYmJgwfPhy1Wl0lgL45V9P4XJblau/Nzs7m+++/Z+XKlWRnZ+Pg4IC5uTk5OTnk5OQgSRINGjSgT58+zJo1i7Zt26JUKh/IcxGEh+XW/4+qc336TGyWLabB0kVcnz4TAFNfHyyCx1MQup6CtetqLHvjDtdurF2H5YR/YRk8npLjJyitCLBtli3G1NeH69NnGl673fcgCDVJTU0lLS0NAFtbWzw9PQ3X4uLiKCwsBKB169bY2dk9lD4KxmoMnm83l/lxnuN8J7fu9Xs/Q7tr2jdYEARBeDSZm5sTGBjI0qVLOXr0KMnJyWi1Wuzs7PDy8uLkyZOsXLmSc+fOsWTJEgCGDh1KgwYNUCgUlJaWkpeXR1paGvHx8WRlZVFeXk5qaipHjx6lRYsWODs7o1arUSqVyLLM1atX2bx5M8uWLePKlSt4e3sTEhKCm5ub4c2TUqnE3d2dTp064ezsXOtDxgXhUSXLMhJSxdrV1R+vh8zEZvlibJYtJjfkdUpjT5DZrecdy93N8cbXoRR8vc5wbrNcFzjnhrxO2fGTdywvCLezZs0aPvroIwDatWvHn3/+CUBxcTHe3jfn5m/bto1hw4b97XY2bNjAsWPHGDVqFN27d7+/TtdzNf72rZzxrK/Dm8PDw5k/f/59zYuujWdXVzL9giAIjwOVSoWbmxsuLi5otVpANydaoVDQpk0bzMzMmD9/PmfOnGHBggWUl5czfPhwVCoVhw8fZvfu3URGRpKZmcnVq1cpLS0lPDycc+fO4ezsTGBgIM8++yx+fn6UlZWxZcsWVqxYQUpKCt7e3rz99tv07dsXCwsLo6lRCoWixpW6BaEukmWQtTJyxQbKVY4Vw6JlSSZn2gxsv1iKzbIl5IbMqHL9TuXv5rrNF0t0gfNrMyiJvZlxvl15kXkW7tbp06fJzs7G3t6ekydP1mrdBw8eZO3atXh5eYng+T7d8aPr+ryo1v3OJ6uNZ/c4L8gmCILwuNKvmH0rOzs7hg8fjiRJLFy4kHPnzrFw4UIyMzPJzs7mxx9/JC0tjdLSUiwsLDA3N8fCwsKwWnZSUhIxMTHs2bOHIUOGYGVlRWhoKKmpqbRv354333yTfv36YWlpiSRJYmi2UM/JugyuLFU6giSDUYa34nrutBnYrliK7fKl5Lw2vcp1fXkzXx9kwGpCMKXHjwMS+V+vvW39pn4+qHx9yHltBqWxJ6ptv7rygnA31Go1Go2GyMhI+vfvT0REhNHrelqtlsWLF/Ptt98SGxuLl5cXY8eOZdasWSiVSnbt2sXy5csZMmQI6enpbNq0iSlTpvDLL78AsGrVKgCmTJnCwYMH+eijj4iPj2fYsGG0b9+enTt3MnnyZIYPH056ejpz587l6NGjAPTs2ZNx48YZPtQtLCzk7bffZseOHVhbW7NgwQIWL16MSqVi9+7dAEZteHp68tJLLzFx4sQH9lz/CSbDB9TPrPKdPCoBq34EwOO8MJsgCEJdoZ97PHToULRaLYsWLSIhIYFPP/2UkpISysrKcHV1JSAgAF9fXxo3boxSqaSsrIyMjAyioqKIiooiISGB5cuXo1QqKSoqwtfXl1mzZhkFzoJQ393MPOtObmZ2Jd15RWbYalIwJTHHKTl+nOxXQ7BfuQy7FUvJfnW6rp5K5a1fnoD1xGAASmKPY+rrg8rPF6uX/0X+16Hkf7m2Sv2yBMXRsaR3CQIZVB39UPn6kP/V2ir139o/kXgW7kbPnj3ZtWsXx44do3///oSHh6NWq/Hx8TGKSebMmcNnn31mOI+LiyMuLo709HQWLVpEWloav/76K7/++qvhnsTERFJTUwG4ePEiiYmJ/Pnnn/Tq1ctwz//+9z/D18888wwAI0eONLStVqtZs2YNa9as4erVqzg4OPDKK6+wcePGKuX0Dh8+bNRGRkYG4eHhaDQaZs6ceV/P62EyGVbDysr6bajmz59fLxet0v+w/J3McW0+O30/6uvQeUEQhEeNJEnY2toyYsQIioqKePfdd8nJyUGpVPLUU08xffp0OnbsiK2tLSqVyhAIFxcXk5mZyZEjR1i+fDlRUVGUlpbSvHlzQkJCGDx4MCqV6iF/d4LwCNJHoPIt54D1xAlYvxxMvqwLhgGyX52O/cpl2K9cpgugK+7XB875X4UaAl+jeiYGg0yVa9W1bz0xmJLY47o2b9M/seK2cDfatGnDwYMHOXToELIs8/PPP9OzZ0+jrHN6erohcF61ahUTJkxg7dq1TJ06lcWLF/Pmm28a1Tlw4ECmTZtGv379KCkpYe3atXz66adMmTKFqVOnAhAQEMDu3buJiYkxCn5zcnJIS0ujXbt2HDp0CEtLSywtLQHd8PKioiJD4Lxx40Z69erFa6+9xvbt2w11fPzxxwBMnz6dhQsXsnHjRoKDg1mwYAEhISGP7dodt+31nj17WLBgwSOThX3Q7mfYdW09u6CgIObMmXNfdQiCIAjVk2WZwsJCcnJyKCkpQaFQYG1tjZ2dHQqF4rZli4uLuXDhAiUlJajVaoYOHcqMGTNo3769UdCsZ25ujqurK4MHD8bNzY0lS5awa9cu8vPzSUlJuau5kaWlpeTm5nLjxg3DKuD29vaYm5uLbLVQ58iyXLHuwC37LFc6Wk8MRvPlWjRffm30etaU1zDr6Gcob9bRp9K9a6vUk7fmK2RZRj1pAsUxsRTHxNbYblF0LMUxx7F6OZii6Jjb9k9knoW7IUkSffv2Zdu2bZw+fRqNRkPXrl3Zt2+f4Z74+HjD1xMmTEClUhEcHGwIhOPi4gzXvby8DEOnqxMTEwPA1KlTcXBwYMCAAQQFBRniFjs7O8LDw9m4cSOTJk0iKirKULasrIwzZ84A4ODgwNixYwFdkFw5eNYP9z527BgjR46kqEi3I0pGRgYXLlwwWln8cXLb4DkoKMjoQdYn95vpra1n96AyzmL4viAI9U15eTnnz59nx44dREZGotFoMDExoXnz5gwaNIigoCCsrKyqLVtWVkZ0dDQ///wz5eXl9O/fn3//+9+0bt36tp+mS5KEhYUF/v7+hISEkJGRwZEjR9i5cydPP/00/v7+1ZaTZZn8/Hz279/P7t27uXz5MlqtFisrK3r16sXgwYNp2rSpCKCFOkrGMJm40rn6lQlGt9x6XRcA685Vfn4AFUF29fdrvvwa9aQJNbZX+Tz/y69p+L8VmHX0pTjm+B3uF4Q769KlC9u2bWPFihUAdOrUySh41m9bpVarMTU1BXQLXOrnRRcUFBjubdOmzW3bunHjBqD7UFev8lpP165do1OnTqSmpuLq6sqzzz7LDz/8QEZGhlFfKo+W0mem9fRZ8+LiYq5fvw5A7969AQz9fxzdVb5cDBn++x6XZ1fT8H1BEIS6SJZljh8/zqeffsqvv/6KRqNBkiRkWcbExIQDBw4wffp0xo4di1qtrlL+xo0bHDp0iJSUFJydnRkzZswdA+fKVCoV/v7+BAcHk5CQwF9//cVPP/3EE088YfRmRt/X3NxcQkNDWb16NRcvXkSr1SJJEuXl5YSHh3Py5EnmzZtH8+bN75gxF4THhS7zLN/M48rGeV31pAnkrfkazZqvq71udC7LFMfE3rY+qSLgVvn6UhgVe9v6CqN12WnriRMoinqt5vZF6lm4S506dQJuzj/u2LGj0fVWrVoBuqA0Li4Ob29v4uLiDEFqq1atDMFtTb+L9D+P7du35/Tp03z33XeMGjWK1NRU9uzZY7jvt99+IzU1FQ8PD86ePUteXp7RvGh3d3dAt091TEwMPj4+bNmyxagtLy8v4uLiGDVqFHPnziUvL4+ffvoJgKZNm/6NJ/RoEL9hBUEQhHrn8uXLfPXVV+zbtw+tVsuTTz5JcHAww4cPx8XFhbNnz7J69WoOHTpEeXm5UVlZlrl27RonTpygtLQUf39//Pz87nn+lrm5Od26dSMgIIAbN25w9OhRrl69WuW+goICdu3axYoVK0hKSqJFixa88MILjBs3js6dO1NUVMTWrVtZuXJlteUF4VEybuxYli9bdk9lZKhYgMv4HKA45niN143O76K+ez3PW7MWs45+qDr63fZ+4eEZN3YskRUrVz/qfH19DV97eXlV2fWnTZs29OnTBwAfHx+GDRuGj48PoFtwrEOHDjXWbWZmBsBXX33Ftm3bDCte79ixgyZNmuDm5mZ0vz44TkxMZMWKFYwZM8ZwraysjA4dOtC5c2cA/P39cXZ2ZvHixUZ1BAfrFuabP38+r776Kl26dGH06NGsXbv2sc48i+BZEARBqFfKyso4evQo+/fvp7y8nCFDhvDZZ5/xySef8NlnnzFnzhxcXFw4d+4cP/zwA9euXaOgoMDoT2pqKqmpqZiYmBAYGEijRo3uuR+SJOHs7Iyfnx/m5uakpKSQlJRUpa2UlBR27NhBamoqbdu25YMPPuDzzz/nk08+YcmSJfTv35+SkhK2bdvGyZMnDXtTC0Jte29zEu9tTrrvepYvW0brli3vGETr5zzLWi1aWdYdK87Vr7wMQGFUdLXXbz2XZV1auKbr+nNZBmT5jvVpZRlZ1lb0s+b6UlNTH5vgrS6KiIjgxbFjH9kgWj/VRpIkrKys8KuYXqDfi/nWkUTr1q0zDH3Wzy/u2bOnYfGumqbujBgxArVaTWxsLD/99BN9+/bl66+/xtXVlYyMDAYPHmwYLWtqaoq/vz8jR44EYObMmeTn5/Pkk08CcODAASRJYtu2bQwePBgAa2trpk+fbtRmSEgIs2fPRqPRsGrVKk6fPs2TTz7Jl19+eR9P7OF7PJc5EwRBEIS/qbCwkPj4eDIyMmjWrBmjR482ZI5tbW0ZOHAgMTExfPXVV+zatYuUlBTDp/ZwM/N86dIllEolLi4uf3uVbJVKhZOTE2ZmZiQlJTFnzhwaNmxodI9Go+HUqVOYmpry9NNP8/TTT2NnZ4ckSdjb2/P8888TFRVFVlYWCQkJ9OrVy6i/gvCoWr5sGcuXLSNk+nRCbnnjbSDrt4KqtJi1dBfXK52bBfjpb8W8o9/NcdV6t5yrOvph3tGPoujYauvTnxdF6a6bdfSjKCq22vZ/2LaNb77dwLnz5+/2sQj/gIiICCLGjqVTp06ETJ9OYMUQ6Yftgw8+4IMPPjCc6xfy0gsLCzM6d3Z2JiwsjIyMDJKTk2natCmOjo6G65MnT2by5MlV2unduzdZWVnk5uZiZWVFVFQUdnZ2bNu2jYCAAAoLCwkICADgiSeeAOC7775jxYoVlJaW4uzsbFSfRqMhIiKC8ePHs379emxsbAwBfM+ePQFQKpV88sknvPPOO5w/f54mTZrg5OT0dx/VI0MEz4IgCEK9Ul5eTn5+PmVlZTRo0AAnJyfDkGtJklCr1Xh4eGBiYkJmZmaVNy+gC6BlWcbGxqbKHOV7IUkSpqamKBQKbty4wR9//FElc6Bvy9bWFldXVywsLAz3KBQKmjRpgpWVFZmZmRQUFIjMs/DYqSmIlvXZXfmWVaxl3T7KRdGxNV+vOLedMhGbKZMMdZr7r7yrPpn7r6QoOparE6fctv6i6BjMOvpVZKGrXnd2caFTY/v7fURCLXlUg+h75eDggIODwz2VUalUhjKHDx/mjTfeAGDw4MEcO3bMMF9an/0GaNy4cY11jR8/Ho1GQ7t27XBxcTHsLV15b2fQLXBWeUj6485k20839yEeLhaNEgRBEOo4ExMTbGxsUKlUZGdnk5SURLt27TA1NUWWZfLy8jh9+jSlpaU0a9aMPn36GAWssiyTlpZGWFgYsixTUFDwtxcFkmWZ4uJiysvLsbW1pXfv3ri6uhrdc+3aNQ4cOEBOTg6JiYncuHEDCwsLQPdBQHJyMnl5eSiVStRqda0uGJaWmsoPP/zwt8vIohsVAAAgAElEQVR36tTpvt6cRkZEEHEfQy1F+7Xbfnx8LgDLM23vqvywYcNwueXn+XaqC6LlyitxIWPu3xEksJkyqSJw7UhRTIzhOhjfb+bvR1F0DOkvT73Z0B0yz0jQ5KtV1bZfuX5zf1122tzfT9eP6Jgq7bu6uBDo63XHIeo1Zt7v0r3OI69r7Yft/ZHL55MJ23uNy+dj73j/rUF0fRMSEkJxcTE//fQTO3bsQK1W06dPHz7//PNqF8m8lZmZGQcOHGDFihXs37+f06dP07p1a8aOHcu8efMewHfw8Jj8sPfmVkoieBYEQRDqOv1WUa6uriQmJvLVV1+hUCho06YN169fZ+/evezduxcrKyuee+455syZYwhWQRfwnjp1ivPnz5OQkMDFixcpLi7+W0OlCwsLSU5OpqioCA8PD6ZPn463t7dRMJ6eno4kSWzdupV9+/bRokULevfujampKefOnWP9+vVkZmbi4eFh+BCgtqSlpd3fm+L7zOxERESI9h/B9k/9dnflO3XqdE/Bs54+iP5h1FisZNkosDX398N26qSKrzvS5OuOXHl5CkVRlYa7Vg6EK742+oCr4kvzAN1qxkZl9dcrl6tmxTHzgI40+XqV4aUmX3ckd9WX5KxaY3T/H3/8wcbwg3f8ngM7dTKstvx33O8HLY97+5rsK6QlxJKWEMv+vXdfTh9E303AWJeYmJgwZ84c5syZQ1lZ2T0veAm61cBDQ0MB/nYdj6P68V0KglAvBD/leOebhHpPqVQSGBjIs88+y5o1a/j111+5cOEC7u7u5OXlcebMGa5du0bnzp0ZMWIETZo0McrmyrKMu7s7zZo148yZM0RGRnL16tUqK6PeiSzLhm0+SkpKaN68OS1btsTW1jirZ2FhwYgRIzh+/Djnzp1jwYIF7NixA5VKRWJiIklJSVhbW/Piiy/yxBNP1Grm2cXF5b6yMvfzZthQXrT/yLR/sCLz3POJu8s8u7i4/K129ZnnnFVryLllVEf2ytUURsVgO1WXeS6KiqHw1uC3UirZMA9ZNk4t2706CbuprwDo2lm5BgC7V1/B3L8j5gEdKYyKqWFUiURhZDRXJkzGduorWAR05MqEyZXaudl+YKdO2Pl5/63ncC9emz6dwIe4INbDbv+pAUNIzS6lbUs32ra6uXL03Xz4FDJ9OkeOHiX2xIl/souPrNoIeutL4AwieBYqiOH7Ql3Q3OHvzz0V6pdGjRrx0ksvodFo2LFjB4mJiSQkJCBJEhYWFnTt2pWQkBACAgKqBKOSJGFnZ4efnx+///47x48f58iRI7i5ud1T9jkvL49ffvmF2NhYbGxs6NGjR7WrdpuZmdGrVy/eeustVq1axZ9//snhw4eRZRmFQoGLiwsvvPAC48ePx96+dudWuri6PtQhjYH3OexYtF+77WdVrLQdMrrZP9JelYXDatgnuSAyCtupkzD370j2F6urqalqGeN6ZOymvmIUMBdGRuuCcNk4E1198CxX9CMa24p6CiKjq20/MLAT/V99pbpvt1Z1us/M7ePevtreCeeWvjw1IMjofeztgufKP29Hjh79x/so1A0ieBYAEMP3BUGobzw9Pfn3v/9N165diYqKIjc3FxMTE1q0aMHTTz9N+/bta1wMzNLSkp49e7J7927i4+PZtGkTnp6e+Pn53VUAXVhYyO+//84333zD9evX6dGjB/3796+2rH4RsxEjRuDu7k5YWBgpKSlotVpsbGwICgqiW7duODg41GrWWRAelJpW25aRkeWbedzKx8KoGOxffaXG6/qjoS65htcrjgWRMUjAtS9WIwHO69ZUW+7Wo0VAR4qiYmq8r7pAXni4bru6+126fPkyKSkp2NjY0KZNm1rq2f2Lioqqsmikra0tLVu2RKlU3lUd165d4/z589ja2uLp6flPdPOxJoJnQRAEoV5SKpW4ubkxatQoRowYYcgwKZVKTExMatwvU3+Pt7c3zz77LGfPnuXQoUN8+OGHzJkzh8DAQKM50re6ceMGhw4dYtmyZZw4cYLGjRszePDg275J0e8BGhQURJcuXSgvLze8rl+tWxAeN3cMYmR0ey/fsoi1LEFBRJQueK7h+s1jxfDtW+7L/mI19tN0Q62zv1htuG4R4F8R/VZfrsqRilXBa7jvb64lKPwDaiNo1lu3bh1vv/02/fr14+eff66VOmtDYGBgta+r1Wq+//57+vfvf8c6fv31V0aPHs2gQYPYuXNnbXfxsSeCZ0EQBKFeUyqVd/2JvJ5WqzWssi1JEiUlJfzyyy/k5eUxduxYgoKCcHJyMspcFxYWkpSUxMGDB/n222+Jj4+nvLwcSZIoLi4mPz8fGxub2wbt+mC5NhcFE4QH7W6DGFmWqbzYdeWjnkWgP4WR0TXeZ5QJrvR61or/YRHQERm4tuJ/htftp03GMtAf4I71Wgbo7qtcvko/RfT80NVm0Py4GDduHI0bN6aoqIiDBw9y+vRpxo8fz+XLl+/5951gTATPgiAIgnAPZFkmKyuLTZs2sX79eoqKinB0dKSkpITIyEgSEhJo06YNPj4+ODo6olQqKSsr48qVKxw/fpyzZ89y/fp1bG1tMTEx4dq1a3z55ZeYm5vzwgsvYG9vf9sAWhAeZxs2bbqn+2WtXG1G98YfkRRERmM/bTIpEVHVZpxl6ebA6ar1yIZ5ytqKFbVlCVLGTQQJmn7z1W3bR5axqFitu3L56toXHp5z588/tLa1Wi2LFy/m22+/JTY2Fi8vL8aOHcusWbMMAezGjRtZs2YNZ8+exdfXl+7duzNz5kwsLCxYuHAhYWFhjBw5kvDwcA4ePEjPnj155ZVX7ji/fPbs2TzxxBMAxMfH06FDBzIyMsjKysLR0ZHo6Gjef/99Tp48iZOTEz179uTVV1+lefPm1dZ3v/3MycnhnXfeYf/+/VhbWzNo0CBGjx5tGHF18OBBPvroI+Lj4/H09OSll15i4sSJABQXF7N582a+//57YmJi6N27N4MHD2bUqFG18vd0r0TwLAiCIAh3SavVcu3aNTZt2sTy5cu5cuUK3t7eTJ48mWvXrrF161YSEhI4cuSIYVEvPUmSUCgUWFlZ4e/vz/PPP4+FhQUrV67kzJkzLFiwAIVCwZgxY1Cr1SKAFuo9Wb+3smHJbOPjteWraLrhaywDOuoC4Sr33bJn1S3Xs5avwsit5Wsopz82fG0K11b872Y71bQvEs/115w5c/jss88M53FxccTFxZGens6iRYs4cOAA48aNA8DBwYF9+/axb98+rl+/zieffEJ8fLxh60S9xMREtm7dypUrV7Cysqqx7T179hAfH09RURE//vgjAH5+fjg6OqLRaAgICAB0w7lTU1OJiooiLCyMmJhbV67nvvtpbm7O008/TWzszf23Y2NjWbVqFQkJCcTFxdGrVy/DtYyMDMLDw9FoNMycOZO1a9fy6quvolaradq0KVu2bGHLli3Y29vTt2/fe/o7qQ0mwwcEPfBGBUEQBOFRptVqKSoqoqSkBNAN7TY3NycjI8MQOGdmZuLv789bb71F3759UalU9O7dm4MHDxIZGUlSUhLnz58nLy+Phg0b4uHhgYeHB506daJHjx60adMGrVaLtbU1ixcv5tSpUyxZsgRJknj++eexsrKiuLgYrVZrGK5tbm4u5jcL9YiMVltz9Jn/RxQFEVE0fG0K+S++XEMVMpadAgyZ5LtlGehPQURUje03nj4VgIylK+9Qk4ie66P09HRD4Lxq1SomTJjA2rVrmTp1KosXL+bNN9/k2LFjeHh4MGXKFN566y3mz5/PvHnzOHbsmFFdfn5+hIeHc+LECZ588kk0Gg0XLlzAy8urxvbnzJlT5bW33noL0O1t7eHhgb+/Pxs3biQyMpJu3boRGxtLcXFxlXL328+UlBRiY2NRq9XExsYiSRK+vr5kZGRw5MgRli5dCsD06dNZuHAhGzduJDg4mAULFhASEsKKFSsAePfdd5k5cyarV69m3759XL58+R7+RmqPyTCxsrIgCIIgALoh2SUlJSQmJhIWFsa5c+eQZZnGjRvTuXNnoqOjWb16Nenp6fj7+/P222/Tu3dvLCwskCSJgIAAvL29ycvL46+//uLdd98lMjKS3r17M3fuXFxdXVGr1ahUKkNmeciQIUiSxH//+18uXLjAp59+Sn5+Ph4eHkRERJCfn4+JiQmenp489dRTuLu733FBM0GoCwyZ5+rWsZZlkCQyl6+i2ca1WHbypyAiutrrVkbbSOkrx3jZ7VsURERzI1JXn2WnQAoiIg3tN57+Ko1CplZkrm/fP5F5rp/i4+MNX0+YMAGVSkVwcDBTp+o+dImLi2PevHl4e3uze/duunXrxpEjRwAoLS01qmv48OFYWlrStWtX1Go1Go2GgoKC27b/xhtv4OzsTElJCb///jv79u1j9OjR+Pv78/TTT/PDDz+wefNmBg0axNFK23TpF6Os7H77qX8WvXv3pmXLlgAkJCRQVFREo0aNeOGFFwBdkD5y5EiKiooAXQb6woUL9OjRg9OnTzN79mxmz57N0KFDmT17Nt26PZwYVgzbFgRBEIQK+fn5HDhwgMWLFxMVFUVJSYlhuLWtrS0FBQUUFRXh7e3Nm2++aRQ4AygUCszNzTE3N0ej0WBlZYVCocDOzg43N7dq92FWq9UMGTIEpVLJp59+yp9//smHH36ImZkZ169fNwz9trCwoHfv3syYMYPOnTtjZmYmAmihjtNlniUqFg679SjL5B+L5EZElG5uslZb/fVjkTVuNXU3x0YhUyBkCkljgpGBG8ciaRQylYwlX1Tfr0rti8xz/VRYWAjo/n3XL/CoUqmMgsqlS5fy+uuvA9CvXz+ef/55tm7dWqUuOzs7w9cWFhZoNJo7th8cHGyY8zx9+nSsra0BOHToEFlZWXTp0gXQZYvHjx9vyO5W5377mZOTA+i2zNJzdHQ0fK2/r7i4mOvXrwO6QBvA1NSUDz74AKVSyfr169FoNGzfvp3t27fzzTffGIaTP0hi7JcAwPABQYY/giAI9VFZWRkREREsWLCA8PBwrKysCAgIoFu3bjg7O3Pt2jXy8/Np0aIFc+bMoW/fvkaB898lSZJhAZVp06bh6OhIXl4eGo2G5s2bExQUhK+vL0qlkn379vHhhx9y4sSJajMEglCn1DSVuOI/+vNLY4J1ATTQ/NtQLDsF3G6qcpXyd1M/QLNvQwHIj4jiT48n7qq8yDzXT61atQJ0gWFcXBygyzbrA8VWrVqxcqVuyP8333zDzz//bChT2yoPr27cuDGbKhbtmzBhAjExMQwaNOi25e+3n/pFyKKioigvL0eWZQIDA3F0dCQ8PNww/HzUqFGEhYWxfft2Jk2axKRJk7C3t+fzzz/H0tKSpKQkoqOjGTp0KABr1669p37UFpF5FgAQw/cFQajvcnNz2bFjBydOnKBRo0ZMnz6dkSNHYmlpydGjR5k/fz5xcXFYWVnh6emJpaVlrWV+JUnC0tKS5s2bY25ujqmpKd26dePf//437dq1Izc3ly1btrB69WqOHTvG//3f/9GqVSsaNmxYK+0Lwt34YHSzB9qejKyb81+Ry72ZEa7I7VYEpvpzj83rsOoUQIYso5W1Va7fqfztrieOGo/H5nU037SWi6OD7768iJ7rtH379lX5PTBw4EB2795Nnz59+PXXX/Hx8WHo0KFs374dgJ49e9KhQwc8PT05d+4cu3bt4uLFiyxfvhyofuj0veratSuAUZZarVbTvXt3zlesQB4dHc2iRYtYvXq14Z7q2r7ffg4aNIipU6dy+vRp+vbti1arJSoqCrVaTefOnQkODmbmzJnMnz+flJQUfv/9d06fPk2fPn144YUXWLdunWF+9MCBA8nIyAC444rj/xSReRYEQRDqPVmWSU1NJTpaNzeyf//+BAcH4+HhgZOTE/379+f111+nYcOGJCYmcvz4ccrKyu5YZ+Wv5Tu8iS4tLeXPP/8kIyMDV1dXJk6cSPfu3XFycqJNmzZMnDiRPn36IMsykZGRXLly5f6/cUF4lFWMetYHovIt55Wve2xeh1XnQBJH/Yv8PyKrXL9T+bu5njjqXwC4bw696/IidK5/tFotAOvWrTMMP64cOG/cuBGAWbNm4eDgwNatW3nvvfcYP348oMvQVv73vboPae/0wa1GozEEzmq1moEDBxIeHo6NjQ1jx47Fy8uLuLg4Zs2aRVBQEGq1GtAN677V/fbTxcXFMMz7t99+4+DBgzg4OLB//35MTU0JCQlh9uzZaDQaVq1axenTp3nyySf58ssvkSSJbdu20blzZ44cOcK8efM4cuQIAQEBhgXQHjSReRYEQRDqPa1Wy/Xr18nNzcXS0hJfX18cHBwMK1tbWFjg4+ODk5MTFy5cIDU1lbKyMszMzKrUJcsyxcXFXL16FY1GQ3l5OdnZ2Vy9ehVra+tqy4AueM7MzKS0tJTGjRvj6emJqakpkiQhSRL29va0adPGMBf6bua9CcLjTKbiQ6dbI1DZeL0vjy3rdYHzC+N1gTPglfQXV5d8wdXFK+5Y/nbXHWe+huPr0wx1X3hhPB7frcd9yzoSXxh/x/Ii81w3zZs3j3nz5t32HmdnZ8LCwsjIyCA5OZmmTZsazfXt0aMHly9f5vz587i7u6NSqQxZXYDQ0FBCQ0ON6rx69ept27zTh7Sg227q5MmTXLx4EXt7e2xsbPjqK+PV6CvvoVwb/RwxYgRFRUWcP38eExMTWrZsadjrWqlU8sknn/DOO+9w/vx5mjRpgpOTk6Fst27dOHbsGImJiWRnZ+Po6EjTpk3v+H3+U0TwLAiCINR7+oW+zMzMKC0tJSMjg6KiIsPQ7PLycrKyssjPz0ehUKBWq6vdMkqr1ZKbm8uPP/7Ixo0bOXnyJKWlpfz2229oNBr+9a9/0a9fP6OFVfSUSiWWlpYoFAoKCgrIzc1FlmUkSTIE5NnZ2ZSWlmJmZlZjEC4IdYZcEQxIFatX6wdGV5zLSLT4bj3WnQO58MJL5B+LMly/uniFIfC9uuQL0hctr1LecWYIIJO+5Isq9Vt3DsDx9dew7hJI/h+RFYG8rlMXXhhPiy3r8diyngsvvHTb/gmCg4MDDg4O1V5TKpV4eno+4B7puLu73/W9tdFPMzMz2rdvX+N1tVqNr69vjdf12z0+bCJ4FgRBEOo9SZJo0qQJbdu25cyZM+zatQtfX1+CgoJQqVScO3eOr7/+mrS0NNzc3OjQoYNhBVU9WZbJzs5mzZo1rFq1iszMTExMTGjQoAFFRUUcOHCA5ORkcnNzGTNmDA0aNDAqr1KpaN26NXZ2diQlJfH999/TuHFjXFxcKCgo4ODBg+zfvx+tVkvbtm1rfDMmCHWFrA+eDdk0+eYFoMkbuuD2/Mhx5B+LNCp4ZdFyrixaTpM3QmhSEUSnL9atKJx/LIL8Y5FYdQ7Q3a5djnWXQKy7dMK6cyCALmg+Flm17or6z48cR8vvN9Diu284P1K/4q9x/+DO0zUEQXi8mGz76bDhZLhYNEoQhMdYaJhumFDwU453uFMQqmrSpAkDBgzg2LFj/PXXX/znP/8hMDAQCwsL4uPjOX78OKampgwYMAAvLy/DkDM9WZY5cuQIGzZs4MqVK3h5eTFo0CAcHBy4dOkSO3bs4Pz584SGhuLp6UmPHj2MstdKpZKOHTvSo0cPtm7dypYtWzh37hytW7cmNzeXyMhIUlJScHV1ZciQITRq1OhBPyJBeMDkSqOejQZaAzJXFi5HczSiIriteh0krixczpWFy3F64zVdcNwlEGa+ZtSKT8pZw9f6QDnh+VuD5qr1Jzw/jlZbN9Dy+w0kPP9ite0LglC3mPywN9xwIoJnQRAeZ5cyih52F4THmEqlok+fPiQnJ7NmzRoSExO5ePEiCoWCsrIyrK2tGTBgAOPHj8fW1tZocRRZlg3Ds5OSkmjWrBn//ve/6devH2ZmZhQWFtKmTRv++9//Eh8fT1hYGL6+vkb7XkqSRNOmTZk+fToFBQX8/vvvHDp0iKNHjxoWHGvVqhWTJ0+mV69eYti2UOfpks5abu64DDeDUt2KXJqjf9z2uo7E5YXLKr0uoe4SSJNZIai7dCJhxDhdXUZBeOWMcc31nxsxllb/t5GWWzcY6ql8XSSeBaFuEcO2BUEQBAFd8Oro6Mgrr7xC69at+fnnn0lKSgLA1taWJ598kmeeeYYWLVpUO9+5oKCAS5cuUVpaSufOnenatSs2NjZIkoS5uTn9+vVjz549pKSkcPHiRfLz842CZwBTU1N8fX356KOP2LVrF4cPH6awsBClUom7uzsDBw6ke/fuhnoFoa6TZfQbP1VzpIbX73w972gETd4IQXM0As3RP2q4/+7qTxj+ItZdO1XMcza+LtbbFoS6RQTPAgBi+L4gCIJu4TAHBweGDx/O008/TUFBAbIso1KpsLGxwczMrMagVavVGva9tLCwQKVSGe6VJAkzMzPMzc0B3f6YNc2FVKlUtGvXDg8PD8aPH095eTmSJGFlZYVarcbERPzqFuoHWZaRtVpk/QJctXw8O3xsRXR+//XlHT5WbT0i8ywIdYv4DSwAIIbvC4Ig3KRUKrG3t8fe3v6uy1haWuLi4oKJiQkREREcP36cHj16YG5uTkFBAUeOHOHUqVMoFApcXFywsrKqsS6FQoGlpSWWlpa18e0IwmNLBiR9RvcxPAqCULeI4FkQBEEQ7pMkSahUKrp168bevXs5d+4cn376KadPn6Zx48akpKSwc+dOEhISaNasGd27d6+y2rYgCMZ0mWcZuWJ89ON4FKttC0LdIoJnQRAEQagFCoWCXr16MWjQIDZt2sThw4c5fvw4KpWKoqIibty4QePGjRk7dizdu3cXw68F4a48IlHw3z4KglCXiN/cgiAIglALJEnCycmJmTNn4ujoyO7du0lNTaW0tBRra2vatm3LiBEjGDlyJDY2Ng+7u4LwyCtKTkGrrbxq9uN3FJlnQahbRPAsCIIgCLVEqVTSokULpk+fTt++fbl48SKFhYWo1Wrc3d1p1aoVDRo0ECtlC8JdaLH8c1os//xhd+O+FCenPuwuCIJQi0yGDwh62H0QBEEQhDpDkiRsbW3p1KkTfn5+aLValEolJiYmImgWhHrGzM31YXdBEIRaZDJMrKwsCIIgCLVOv4iYIAiCIAh1g+Jhd0AQBEEQBEF49L23OYn3Nic97G4IgiA8NGLOswCAGL4vCIIgCIIg1Gdnzpzhgw8+eNjdEGpZ27Zta60uETwLAIjh+4IgCIIgCEJ99v777z/sLgiPOBE8C4IgCIIgCIJQb7Vt21YEzvXAmTNn7rsOETwLgiAIgiAIglBvvffeew+7C8JjQgTPgiDUGcFPOT7sLgj3ICEhgePHj1NYWAiAQqHA3t6e9u3b4+bmhkKhoKioiOPHj2Ntbc0TTzxR41ZPWq2WjIwMiouLcXV1RalUVrknKioKAC8vL06dOgWAt7c3pqamd91nWZbRaDRcunSJtm3bIssyUVFRODk54eHhca+PoEYajYY//viDy5cvG71uZWWFl5cXHh4emJjc36/wkpISLl++TIMGDbC3t7+vugRBEAShPhDBsyAIdUZzB/OH3QXhHhw+fJhVq1bRunVrJElCq9Vy48YNGjVqRHBwMF26dKGgoICdO3fStGlTnnjiiRrrKi0t5csvv8TJyYkxY8ZgaWlZ5Z6ff/4ZWZZp2bIl33//PQCtW7e+p+C5vLyciIgIvvnmG5YvX46JiQnbt28nKCioVoPna9eusWzZMoqKivDx8UGpVFJWVsaVK1fYunUrr7/+OgEBAfcVQKelpbFy5UoGDx5Mt25i3QtBEARBuBOTbT8dNpwMF4tGCYIgCA9Qhw4d+Pjjj1EqlWi1Wq5cucIXX3zBkiVLaNasGQ0bNqRfv340aNDAkPVNSUkhLy8PKysr3NzcsLa25tKlSxw8eJD27dvTqVMnmjZtSnp6OgqFguzsbJo3b07Pnj2RJAkLCwsAioqKOHPmDGVlZTRs2JCmTZtiaWlJYWEhFy9exNHRkYYNG6LVaklPT6egoAArKysiIiKIj4/nxIkTeHl5MWDAAJo2bQroguuMjAxSUlKQZRlHR0ecnZ1RqVTk5uaSk5ODUqnk6tWrKBQKXFxccHBwQKGounOkubk5vXr1Ijg4GJVKhVarJTk5mZCQEL777js6dOiAtbU1hYWFJCcnk5OTg7m5OU2bNsXW1halUsmFCxdQqVS4uLigUCi4fv06ycnJODs7ExMTw7Fjx2jevDktWrTA0dGR3NxckpOTKSwsxM7OjmbNmmFubk5ZWRkpKSlotVqys7Oxt7enWbNm9/TBgyAIgiA87kx+2BtuOBHBsyAIgvAgmZmZ4eDgYBhm7eDgwJgxY5gxYwaHDh2ib9++bN68GXd3d1q3bs2PP/7Inj170Gg0mJiY0KtXL8aNG8eBAwc4e/Ysly9fxsnJia5du/Lhhx/i6upKVlYWkyZN4sCBAyiVSsOWFVFRUSQnJ6PRaLC3t2fEiBEMHjyY1NRU3nzzTSZOnMjQoUMpLS1ly5YtnDlzhhEjRhAWFkZycjKhoaGEhISwadMmnn76aVq2bMnp06cJDQ3l5MmTmJiY0KRJE1588UWCgoKIjIzk22+/xdramqSkJG7cuIGXlxdvvPEGbm5uVZ6NJEmoVCqsrKxQqVQAODs74+rqypUrVygvL6e0tJQ9e/awdetWcnNzUalUeHt7ExwcjLu7O5999hmurq688cYbWFpaEhMTw3/+8x/effddtm/fztmzZ9m6dSsuLi4EBgayadMmjhw5QkFBAQ0aNGDYsGEMGjSIkpISPvroI4qLi8nLy6N79+5MnjwZGxubB/fDIgiCIAgPmRi2LQiCIDwyFAoFrq6uWFpacvHiRaNrmZmZbN68mUGDBvHMM88QHx/Pzp07yc7OZmiAfkoAAA73SURBVMiQIezduxc/Pz/Gjx9PWloa+fn5dOvWjX79+mFjY8OhQ4eM6issLOTFF1+kY8eO7Ny5k1WrVuHu7o6dnV2N/fPy8uL555+nuLiYd955x2iucFlZGWvXrgVg8eLFWFhYsGnTJlavXo2TkxOyLJOWlsYzzzzDzJkzOX36NB999BF+fn689NJLVdrSarXk5OSQkpKCqakppaWlREdHk5yczNixYzE1NSUhIYFvv/2WZ599lqeeeorU1FQ++OADzMzMmDFjRo3fR6NGjZgyZQoZGRlMnjyZ7t2788MPP3Dy5EneeustGjduzJEjR/jyyy9xdXWlXbt2ZGZm0qZNGz7++GPUajUNGjS4q79TQRAEQagrRPAsACCG7wuC8KgwMTHB0tKS4uJio9eVSiWSJBEVFYWrqyvu7u7MmTMHZ2dnysvLMTMzw9ramgYNGpCeno6DgwMdO3Y0ZHUlSUKWZUN9Xbt2pVevXoah4T/99BOxsbE89dRTNfbNzMwMtVqNSqXC3t7eaNjyjRs3OH36NDNmzKBDhw5IksSECRMICQkhPj4eOzs77OzseOb/27v/36rrew/gz9OetaeH0vKltBSwrIAieFGnIXNzLG43M2JiNFRJbogu/qAx0Zt9MVuyn7a7Ld5lf8B+WbJpsmzzB4jZEtgvy5jFTDKyGF2iiWLRDSlgKh1FoF849wfHiaw9/WyT3cPo4/FT3z1f3q82hJxnP6/P63333Vm/fn3a2toyODiYsbGxOfd6//3389Of/jT79+/P1NRURkdH09/fnwcffDD3339/yuVy9u/fn0qlkrvuuiurVq3KNddck3vvvTe/+tWvMj4+3vDnaG1tTXd3dyqVSpYsWZKZmZm8+OKLmZmZyeHDhzMyMpKJiYmcOnUqL730Uq6//vosXrw4W7duzeDgYMPBbQBwNROeSZJo3weuFJOTkzl//nw6Ozsv+X5fX1++/vWv55lnnsn3v//9tLW1Zdu2bXnkkUeyZMmSWe/zsY99LJVK4yFynZ2d9fDb2dmZpUuXNgycFy5cuCR4/62LV5VrtVq6urrq4XLNmjVZtGhRpqen6zVd/LlKpdK89wx3dHTk/vvvzwMPPJCxsbE888wzaW1tzdatW7N48eJMT09nZGQkbW1t9fdsaWnJwMBAyuXynPU2+hmmp6dz+vTpnDx5Mi+88EK9/k9+8pPZsGFDvYW8o6NDcAZgwRKeAbhiTE9P54033sjk5OSs6dq1Wi0bN27Md7/73Zw8eTJ/+MMf8pOf/CSDg4O59957/+G9Jicnc+HChSTJxMRETp8+Xb+H98Nh+eKU66mpqYbvVSqV0tvbm1KplImJidRqtZRKpRw7dixnz569ZCr23xs+W1tb09fXl40bN6a1tTW9vb35zne+kx/84Af51re+VR9ydvTo0Zw5cyZdXV25cOFCjh49munp6fo+F3/GqampHD9+fM4A3dLSkmq1mi984Qv5yle+knK5nKmpqYyNjaWrqyuTk5N/V80AcDWbPd4TAP6fnD9/PidOnMiJEycyOjqal19+Oc8++2yuvfba3HbbbfXn1Wq1HD58OE888UReeumlrFu3LrfddluWLVuW999/PxcuXEipVMqZM2dy/vz5ea8SX3To0KGMjIxkbGwsv/vd73L27Nn68U+1Wi1vvfVWxsfH8/rrr+e1117LzMxMkg/C7/T0dCYmJurfS5IlS5ZkYGAgBw8ezOjoaMbGxvLcc8/l3LlzWb9+/T/9OyqVSimXy7nuuuty33335fnnn89zzz2XycnJfPazn83p06dz6NChnDp1Km+++Wb27t2bdevWZdGiRalUKjl27FjefffdjI6O5tChQ/UwnXwQrCcmJtLR0ZEtW7ZkeHg4f/7znzMxMZHf//73efTRR/Pb3/72ktcAwELlyjMATdHW1pbDhw/nG9/4RpIPjnn6y1/+klWrVuXRRx/N0qVLMzY2lo6OjlQqlfT29mbTpk159tln88ILL2R8fDz9/f258847U61Wc8stt+T555/Phg0bMjg4mGq1eskRUB0dHfWQXalUMjMzkx/+8IepVqs5efJkHnroodxwww2Znp7Ozp0784tf/CLHjx+vv37x4sVpbW3N4OBgFi1alKeffjo7d+5MtVpNW1tbyuVydu3alaeffjrf/va3U61Wc/z48ezatSubNm3KwYMHL6np4tXe9vb2Wb+bi49dnLKdfHAv+Oc///kcPHgw+/bty6c//elcf/31ufPOO/Pzn/88w8PDmZiYSF9fX774xS+mu7s799xzT370ox/le9/7Xnp6ejI6OprOzs60trbWj6L65S9/mRUrVuTuu+/O0aNH89RTT6WnpydHjx7NTTfdlJtvvjktLS3p6OhwNBUAC5rwDEBT3HHHHVm9enX9fuBSqVQ/u7mvry+lUimLFy/OI488ko6Ojixfvjxf+tKXcuTIkZw+fTrt7e1Zu3Zt+vv709LSkocffji33357li5dmpUrV+bJJ5/MmjVr6vs9+OCDqdVq6ezszK5du3LfffelVqtlfHw8vb29Wb9+fSqVSmq1Wnbu3Jkbb7wxZ86cybJly+pXo6vVaj7xiU/kqaeeytTUVPr6+vLYY49l+fLlaWlpyac+9akMDAzkT3/6U5IP7tMeGBhItVrNTTfdlBUrVtSneS9btixPPPHEnMc99fT05Mtf/nKWLl16Scv3smXL8tWvfjVvv/12+vv7U6lU8tBDD+X222/PqVOn0tHRkbVr19aP//rMZz6T/v7+jI6OpqurK11dXXnvvfeydu3aVKvVPPnkk3nnnXcyMDCQ/v7+fO1rX8vIyEjOnj2brq6u+vTxmZmZPP744+nr6/tX/pMAgCtaeWj7tmbXAMACtHr16qxevXre57S1teWGG26or1esWJEVK1bM+dze3t709vbW18uXL7/k8Y0bN8759d+6GNq3bt065+Plcjm33nprff3h46ra29uzbt26rFu3btbrenp60tPTU19XKpXceOONc+5RrVZz8803z/p+a2tr1qxZc8kfBbq7u3PLLbfM+T7t7e3ZvHlzNm/ePOfj69evv6SlfOXKlVm5cuWs57W0tGTLli1zvgcLx//819pmlwDQVOUdJisDAADAvAwMAwAAgALueSZJon0fAACgMeGZJIn2fQAAgMa0bQNXjR//+nh+/OvjxU8EAIB/kCvPwFXjyIlzzS4B6mZmZlIqlS45axoA+PclPAPAv0Bra2uzSwAALiN/DgcAAIAC5d17D9QXQ4ZGAQAAwCzlPfuG6wvhGQAAAGbTtg0AAAAFDAwjSaJ9HwAAoDHhmSSJ9n0AAIDGtG0DAABAAeEZAAAACgjPAAAU+ubP3so3f/ZWs8sAaBrhGQCAeR05cS5J8vHeSpMrAWie8tD2bc2uAeCy+HhvJUdOnMuRE+d8wAMA4LIq7zBZGbhKDPa158iJcxkRngEuq9+8Mp4k+Xhfe5MrAWgebdvAVeOO/1iSJNn/1w95AHx0Fzt6kmTQHyaBBcw5zyRJtO9ztXj4P/tcdQa4jEY+dL+z/1+BhUx4JkmifZ+rhQ92AJfPb/54qt7N87kt3U2uBqC5tG0DADDL3wZnf5wEFjpXngEAqPtwaE4+CM4XZ0oALGTCM8Bf/eaPpz7S6z/3ET9c2t/+9rd/M/c/cvx8fTBY/X0FZ4A64Rngr+b64PiPGPyIw3Tsb3/72/9K2V9oBpitvHvvgfpiyNAoYAH73JbuHDnRvDNM7W9/+9u/mfsn7msGmE95z77h+kJ4BhayZh/DYn/729/+zdwfgPmZtg0AAAAF3PNMkkT7PgAAQGPCM0kS7fsAAACNadsGAACAAsIzAAAAFBCeAQAAoIDwDAAAAAXKQ9u3NbsGAAAAuKKVd5isDAAAAPPStg0AAAAFnPNMkkT7PgAAQGPCM0kS7fsAAACNadsGAACAAsIzAAAAFBCeAQAAoIDwDAAAAAXKu/ceqC+GDI0CAACAWcp79g3XF8IzAAAAzKZtGwAAAAo455kkifZ9AACAxoRnkiTa9wEAABrTtg0AAAAFhGcAAAAoIDwDAABAAeEZAAAACpSHtm9rdg0AAABwRSvvMFkZAAAA5qVtGwAAAAo455kkifZ9AACAxoRnkiTa9wEAABrTtg0AAAAFhGcAAAAoIDwDAABAAeEZAAAACpR37z1QXwwZGgUAAACzlPfsG64vhGcAAACYTds2AAAAFHDOM0kS7fsAAACNCc8kSbTvAwAANKZtGwAAAAoIzwAAAFBAeAYAAIACwjMAAAAUKA9t39bsGgAAAOCKVt5hsjIAAADMS9s2AAAAFHDOM0kS7fsAAACNCc8kSbTvAwAANKZtGwAAAAoIzwAAAFBAeAYAAIACwjMAAAAUKO/ee6C+GDI0CgAAAGYp79k3XF8IzwAAADCbtm0AAAAo4JxnkiTa9wEAABoTnkmSaN8HAABoTNs2AAAAFBCeAQAAoIDwDAAAAAWEZwAAAChQHtq+rdk1AAAAwBWtvMNkZQAAAJiXtm0AAAAo4JxnkiTa9wEAABoTnkmSaN8HAABoTNs2AAAAFBCeAQAAoIDwDAAAAAWEZwAAAChQ3r33QH0xZGgUAAAAzFLes2+4vhCeAQAAYDZt2wAAAFDAOc8kSbTvAwAANCY8kyTRvg8AANCYtm0AAAAoIDwDAABAAeEZAAAACgjPAAAAUKA8tH1bs2sAAACAK1p5h8nKAAAAMC9t2wAAAFDAOc8kSbTvAwAANCY8kyTRvg8AANCYtm0AAAAoIDwDAABAAeEZAAAACgjPAAAAUKC8e++B+mLI0CgAAACYpbxn33B9ITzDR3Ps2LFmlwAAXIVqtVqzS4AFz1FVcBl0dnamu7s7q1atanYpAMBVas2aNc0uARa0S8Lzrv/+3/rXO7ZvK7wSvXvvgXz4yvVcvM+/z/tsunYgmzas1YHwT7j11lvzyiuvZHp6utmlAABXqeXLlze7hCvaq2+8ld17m10FVzNXnql79fW38+rrbwvP/4S2trZcc801zS4DAGDBuvhZFv5VhGcAAODf1uZrB1LKtmaXwQJQqpk+AAAAAPNyzjMAAAAUEJ4BAACggPAMAAAABYRnAAAAKPB/fHTOOdUHFcwAAAAASUVORK5CYII=;" parent="1" vertex="1">
          <mxGeometry x="-30" y="270" width="975" height="392" as="geometry" />
        </mxCell>
        <mxCell id="U5xGtK3KDeDcZgoCcWLu-6" value="" style="whiteSpace=wrap;html=1;aspect=fixed;strokeColor=none;" parent="1" vertex="1">
          <mxGeometry x="806" y="450" width="125" height="135.13" as="geometry" />
        </mxCell>
        <mxCell id="U5xGtK3KDeDcZgoCcWLu-9" value="&lt;b&gt;Account Accounts&lt;/b&gt;" style="rounded=0;whiteSpace=wrap;html=1;" parent="1" vertex="1">
          <mxGeometry x="807" y="460" width="120" height="60" as="geometry" />
        </mxCell>
        <mxCell id="U5xGtK3KDeDcZgoCcWLu-10" value="&lt;b&gt;Customer Accounts Balances&lt;/b&gt;" style="rounded=0;whiteSpace=wrap;html=1;" parent="1" vertex="1">
          <mxGeometry x="806" y="380" width="120" height="60" as="geometry" />
        </mxCell>
        <mxCell id="U5xGtK3KDeDcZgoCcWLu-11" value="&lt;b&gt;Customer Accounts Accounts&lt;/b&gt;" style="rounded=0;whiteSpace=wrap;html=1;" parent="1" vertex="1">
          <mxGeometry x="807" y="540" width="120" height="60" as="geometry" />
        </mxCell>
        <mxCell id="U5xGtK3KDeDcZgoCcWLu-13" value="" style="edgeStyle=orthogonalEdgeStyle;html=1;endArrow=none;elbow=vertical;startArrow=block;startFill=1;strokeColor=#000000;rounded=0;exitX=0;exitY=0.5;exitDx=0;exitDy=0;dashed=1;dashPattern=12 12;entryX=0.79;entryY=0.561;entryDx=0;entryDy=0;entryPerimeter=0;strokeWidth=2;" parent="1" source="U5xGtK3KDeDcZgoCcWLu-10" target="U5xGtK3KDeDcZgoCcWLu-5" edge="1">
          <mxGeometry width="100" relative="1" as="geometry">
            <mxPoint x="710" y="430" as="sourcePoint" />
            <mxPoint x="760" y="410" as="targetPoint" />
            <Array as="points">
              <mxPoint x="740" y="410" />
            </Array>
          </mxGeometry>
        </mxCell>
        <mxCell id="U5xGtK3KDeDcZgoCcWLu-14" value="" style="edgeStyle=orthogonalEdgeStyle;html=1;endArrow=none;elbow=vertical;startArrow=block;startFill=1;strokeColor=#000000;rounded=0;exitX=-0.009;exitY=0.884;exitDx=0;exitDy=0;dashed=1;dashPattern=12 12;exitPerimeter=0;strokeWidth=2;" parent="1" source="U5xGtK3KDeDcZgoCcWLu-6" edge="1">
          <mxGeometry width="100" relative="1" as="geometry">
            <mxPoint x="816" y="420" as="sourcePoint" />
            <mxPoint x="740" y="490" as="targetPoint" />
            <Array as="points">
              <mxPoint x="740" y="569" />
            </Array>
          </mxGeometry>
        </mxCell>
        <mxCell id="U5xGtK3KDeDcZgoCcWLu-16" value="" style="whiteSpace=wrap;html=1;aspect=fixed;strokeColor=none;" parent="1" vertex="1">
          <mxGeometry x="820" y="280" width="64.75" height="70" as="geometry" />
        </mxCell>
        <mxCell id="U5xGtK3KDeDcZgoCcWLu-19" value="" style="whiteSpace=wrap;html=1;aspect=fixed;strokeColor=none;" parent="1" vertex="1">
          <mxGeometry x="861.25" y="280" width="64.75" height="70" as="geometry" />
        </mxCell>
        <mxCell id="U5xGtK3KDeDcZgoCcWLu-20" value="&lt;b&gt;&lt;font style=&quot;font-size: 17px;&quot;&gt;Products&lt;/font&gt;&lt;/b&gt;" style="text;html=1;strokeColor=none;fillColor=none;align=center;verticalAlign=middle;whiteSpace=wrap;rounded=0;" parent="1" vertex="1">
          <mxGeometry x="841.38" y="280" width="60" height="30" as="geometry" />
        </mxCell>
      </root>
    </mxGraphModel>
  </diagram>
</mxfile>
